<?xml version="1.0" encoding="utf-8"?>
<COLLADA xmlns="http://www.collada.org/2005/11/COLLADASchema" version="1.4.1" xmlns:xsi="http://www.w3.org/2001/XMLSchema-instance">
  <asset>
    <contributor>
      <author>Ziella</author>
      <authoring_tool>OpenCOLLADA for 3ds Max;  Version: 1.6;  Revision: 68</authoring_tool>
    </contributor>
    <created>2020-10-04T21:07:57</created>
    <modified>2020-10-04T21:07:57</modified>
    <unit name="centimeter" meter="0.01"/>
    <up_axis>Z_UP</up_axis>
  </asset>
  <library_effects>
    <effect id="def_bigbirdbase_001">
      <profile_COMMON>
        <newparam sid="def_bigbirdbase_001_col_png-surface">
          <surface type="2D">
            <init_from>def_bigbirdbase_001_col_png</init_from>
          </surface>
        </newparam>
        <newparam sid="def_bigbirdbase_001_col_png-sampler">
          <sampler2D>
            <source>def_bigbirdbase_001_col_png-surface</source>
          </sampler2D>
        </newparam>
        <technique sid="common">
          <blinn>
            <emission>
              <color>0 0 0 1</color>
            </emission>
            <ambient>
              <color>0.588 0.588 0.588 1</color>
            </ambient>
            <diffuse>
              <texture texture="def_bigbirdbase_001_col_png-sampler" texcoord="CHANNEL1"/>
            </diffuse>
            <specular>
              <color>0 0 0 1</color>
            </specular>
            <shininess>
              <float>10</float>
            </shininess>
            <reflective>
              <color>0 0 0 1</color>
            </reflective>
            <transparent opaque="A_ONE">
              <texture texture="def_bigbirdbase_001_col_png-sampler" texcoord="CHANNEL1"/>
            </transparent>
            <transparency>
              <float>1</float>
            </transparency>
          </blinn>
        </technique>
      </profile_COMMON>
      <extra>
        <technique profile="OpenCOLLADA3dsMax">
          <extended_shader>
            <opacity_type sid="opacity_type" type="int">0</opacity_type>
            <falloff_type sid="falloff_type" type="int">0</falloff_type>
            <falloff sid="falloff" type="float">0</falloff>
            <index_of_refraction sid="index_of_refraction" type="float">1.5</index_of_refraction>
            <wire_size sid="wire_size" type="float">1</wire_size>
            <wire_units sid="wire_units" type="int">0</wire_units>
            <apply_reflection_dimming sid="apply_reflection_dimming" type="bool">0</apply_reflection_dimming>
            <dim_level sid="dim_level" type="float">0</dim_level>
            <reflection_level sid="reflection_level" type="float">3</reflection_level>
          </extended_shader>
          <shader>
            <ambient_diffuse_texture_lock sid="ambient_diffuse_texture_lock" type="bool">1</ambient_diffuse_texture_lock>
            <ambient_diffuse_lock sid="ambient_diffuse_lock" type="bool">1</ambient_diffuse_lock>
            <diffuse_specular_lock sid="diffuse_specular_lock" type="bool">0</diffuse_specular_lock>
            <use_self_illum_color sid="use_self_illum_color" type="bool">0</use_self_illum_color>
            <self_illumination sid="self_illumination" type="float">0</self_illumination>
            <specular_level sid="specular_level" type="float">0</specular_level>
            <soften sid="soften" type="float">0.1</soften>
          </shader>
        </technique>
      </extra>
    </effect>
  </library_effects>
  <library_materials>
    <material id="def_bigbirdbase_001-material" name="def_bigbirdbase_001">
      <instance_effect url="#def_bigbirdbase_001"/>
    </material>
  </library_materials>
  <library_geometries>
    <geometry id="geom-GamemodelShape" name="GamemodelShape">
      <mesh>
        <source id="geom-GamemodelShape-positions">
          <float_array id="geom-GamemodelShape-positions-array" count="1065">-17.2658 -11.3984 0 -17.2658 -11.3985 9.15431 -17.2658 -10.8605 0 -17.2658 -10.8605 9.15428 -3.27662 -7.33289 13.2213 -3.45412 -7.21094 13.0815 -9.15429 -10.8605 17.2658 -9.15432 -7.21096 13.0815 0 -11.3984 0.299365 -17.2658 -11.3985 9.15431 -17.2658 -11.3984 0 -13.0815 -7.21093 9.15432 -9.15432 -7.21096 13.0815 -9.15429 -11.3984 17.2658 -9.15432 -7.21096 13.0815 -8.92003 12.3208 10.4457 -13.0815 -7.21093 9.15432 -10.4635 12.324 8.90159 -13.2322 -7.34241 2.83797 -13.0815 -7.21095 3.28228 -12.8812 -7.21095 2.94401 0 -11.3984 17.2658 0 -10.8605 17.2658 0 2.77314 9.19842 -5.24896 -1.04043 9.19842 0 -7.21095 9.19843 -3.24402 -7.21096 9.19842 0 -7.21095 12.9815 -3.24401 -7.21094 12.9811 -5.24895 -1.04044 12.1483 -3.24401 -7.21094 12.9811 -5.38779 -1.2598 12.2784 -5.30524 -0.835572 12.2212 -10.1104 12.4787 8.76749 -8.78615 12.4758 10.0921 -9.95404 12.8211 8.52385 -8.5304 12.8182 9.93954 -10.0768 12.4752 0 -9.88904 12.8198 0.00856104 0 -11.3984 17.2658 -9.15429 -11.3984 17.2658 0 -11.3984 8.78257 -9.1984 -0.864118 5.00622 -9.19841 -7.21095 2.94401 -9.1984 -1.32577 5.15621 -9.19841 -6.92563 3.33671 -17.2658 -10.8605 -9.15428 -17.2658 -11.3985 -9.15431 -3.27662 -7.33289 -13.2213 -9.15429 -10.8605 -17.2658 -3.45412 -7.21094 -13.0815 -9.15432 -7.21096 -13.0815 -17.2658 -11.3985 -9.15431 -13.0815 -7.21093 -9.15432 -9.15432 -7.21096 -13.0815 -9.15429 -11.3984 -17.2658 -10.4635 12.324 -8.90159 -8.92003 12.3208 -10.4457 -13.0815 -7.21093 -9.15432 -9.15432 -7.21096 -13.0815 -13.0815 -7.21095 -3.28228 -13.2096 -7.32267 -3.13414 -12.8812 -7.21095 -2.94401 -8.78645 12.4758 -10.0919 -10.1106 12.4787 -8.76718 -8.5408 12.8182 -9.93654 -9.95753 12.8211 -8.51175 0 -10.8605 -17.2658 0 -11.3984 -17.2658 0 12.4736 10.0662 0 12.8182 9.87858 0 -7.34242 -13.2323 0 2.77314 -9.19842 0 -7.21095 -9.19843 -5.24896 -1.04043 -9.19842 -3.24402 -7.21096 -9.19842 -5.38779 -1.2598 -12.2784 -3.45412 -7.21094 -13.0815 -3.45412 -7.21094 13.0815 1.2526e-4 12.4733 -10.0665 0 12.8182 -9.87858 -9.15429 -11.3984 -17.2658 0 -11.3984 -17.2658 -13.0447 -6.93847 3.59856 -12.3414 -1.72679 5.42866 -12.8419 -6.92563 3.33672 -12.0857 -1.32577 5.15622 -13.0447 -6.93847 -3.59857 -12.8419 -6.92563 -3.33672 -12.3414 -1.72679 -5.42866 -12.0857 -1.32577 -5.15622 -9.19843 2.7731 0 -9.1984 -0.86412 -5.00622 -9.19842 -7.21095 0 -9.19841 -7.21095 -2.94401 -13.2323 -7.34245 0 -12.8816 -7.21099 0 -13.2322 -7.34241 -2.83797 0 -7.34242 13.2323 -5.30524 -0.835573 -12.2212 17.2658 -11.3984 0 17.2658 -10.8605 0 17.2658 -11.3985 9.15431 17.2658 -10.8605 9.15428 3.27662 -7.33289 13.2213 9.15429 -10.8605 17.2658 3.45412 -7.21094 13.0815 9.15432 -7.21096 13.0815 0 -11.3984 0.299365 17.2658 -11.3984 0 17.2658 -11.3985 9.15431 13.0815 -7.21093 9.15432 9.15432 -7.21096 13.0815 9.15429 -11.3984 17.2658 9.15432 -7.21096 13.0815 13.0815 -7.21093 9.15432 8.92003 12.3208 10.4457 10.4635 12.324 8.90159 12.2488 -1.04046 5.24893 12.2488 -1.04046 5.24893 9.1984 -1.04045 5.24892 11.7342 2.7731 0 9.19843 2.7731 0 12.2488 -1.04046 5.24893 9.19841 -7.21095 3.24401 13.0815 -7.21094 3.24401 13.0816 -7.21099 0 9.19842 -7.21095 0 13.0815 -7.21094 3.24401 13.0815 -7.21094 3.24401 13.0815 -7.21093 9.15432 0 -11.3984 17.2658 0 -10.8605 17.2658 3.24402 -7.21096 9.19842 5.24896 -1.04043 9.19842 0 -7.21095 9.19843 0 2.77314 9.19842 0 -7.21095 12.9815 3.24401 -7.21094 12.9811 5.24895 -1.04044 12.1483 3.24401 -7.21094 12.9811 5.24895 -1.04044 12.1483 0.48704 2.41928 11.6816 0 2.77313 11.1468 0.48704 2.66504 11.7488 0 3.50156 11.6359 0 12.3226 10.4455 10.1103 12.4788 8.76748 9.95404 12.8211 8.52385 8.78615 12.4758 10.0921 8.5304 12.8182 9.93954 10.0767 12.4753 -1.40198e-4 9.88904 12.8198 0.00856104 0 -11.3984 17.2658 0 -11.3984 8.78257 9.15429 -11.3984 17.2658 17.2658 -10.8605 -9.15428 17.2658 -11.3985 -9.15431 3.27662 -7.33289 -13.2213 3.45412 -7.21094 -13.0815 9.15429 -10.8605 -17.2658 9.15432 -7.21096 -13.0815 17.2658 -11.3985 -9.15431 13.0815 -7.21093 -9.15432 9.15432 -7.21096 -13.0815 9.15429 -11.3984 -17.2658 8.92003 12.3208 -10.4457 10.4635 12.324 -8.90159 9.15432 -7.21096 -13.0815 13.0815 -7.21093 -9.15432 12.2488 -1.04046 -5.24893 10.4633 12.3247 -8.84567 11.7342 2.7731 0 10.4554 12.3243 0 9.1984 -1.04045 -5.24892 11.7342 2.7731 0 12.2488 -1.04046 -5.24893 13.0815 -7.21094 -3.24401 12.2488 -1.04046 -5.24893 9.19841 -7.21095 -3.24401 13.0815 -7.21094 -3.24401 13.0815 -7.21093 -9.15432 13.0815 -7.21094 -3.24401 8.78666 12.4759 -10.0917 8.5408 12.8182 -9.93654 10.1103 12.4789 -8.76739 9.95753 12.8211 -8.51175 0 -10.8605 -17.2658 0 -11.3984 -17.2658 0 12.4736 10.0662 0 12.8182 9.87858 0 -7.34242 -13.2323 0 2.77314 -9.19842 5.24896 -1.04043 -9.19842 0 -7.21095 -9.19843 3.24402 -7.21096 -9.19842 3.45412 -7.21094 -13.0815 5.38779 -1.2598 -12.2784 5.38779 -1.2598 12.2784 3.45412 -7.21094 13.0815 1.2526e-4 12.4733 -10.0665 0 12.8182 -9.87858 9.15429 -11.3984 -17.2658 0 -11.3984 -17.2658 13.0815 -7.21094 3.24401 13.0815 -7.21094 -3.24401 13.0816 -7.21099 0 0 -7.34242 13.2323 5.30452 -0.835048 -12.2211 -10.1104 12.4787 8.76749 -10.4635 12.324 8.90159 -8.78615 12.4758 10.0921 -8.92003 12.3208 10.4457 -10.4554 12.3243 0 -10.0768 12.4752 0 -10.1106 12.4787 -8.76718 -10.4635 12.324 -8.90159 -8.78645 12.4758 -10.0919 -8.92003 12.3208 -10.4457 0 12.3226 -10.4455 1.2526e-4 12.4733 -10.0665 8.92003 12.3208 -10.4457 8.78666 12.4759 -10.0917 10.4635 12.324 -8.90159 10.4369 12.5229 -8.89902 10.1103 12.4789 -8.76739 10.0767 12.4753 -1.40198e-4 10.4554 12.3243 0 10.4633 12.3247 -8.84567 10.1103 12.4788 8.76748 8.78615 12.4758 10.0921 10.4635 12.324 8.90159 8.92003 12.3208 10.4457 0 12.3226 10.4455 0 12.4736 10.0662 -12.1889 -0.593554 5.08614 -12.0239 -0.864121 5.00622 -11.7622 2.56706 0.519806 -11.7622 2.56706 -0.519806 -11.5844 2.42142 0.484059 -11.5844 2.42142 -0.484059 -12.8812 -7.21095 2.94401 -13.0815 -7.21095 3.28228 -13.0815 -7.21095 -3.28228 -12.8812 -7.21095 -2.94401 -12.0239 -0.864121 -5.00622 -12.1889 -0.593554 -5.08614 9.95404 12.8211 8.52385 9.88904 12.8198 0.00856104 0 12.8184 0.177881 8.5304 12.8182 9.93954 0 12.8182 9.87858 0 12.8184 0.177881 -8.5304 12.8182 9.93954 0 12.8182 9.87858 -9.95404 12.8211 8.52385 -9.88904 12.8198 0.00856104 -9.95753 12.8211 -8.51175 -8.5408 12.8182 -9.93654 0 12.8182 -9.87858 8.5408 12.8182 -9.93654 0 12.8182 -9.87858 9.95753 12.8211 -8.51175 0 12.3226 10.4455 0 12.4736 10.0662 0 12.3226 -10.4455 1.2526e-4 12.4733 -10.0665 5.30524 -0.835572 12.2212 -0.48704 2.66504 11.7488 0 3.50156 11.6359 0 12.3226 10.4455 -9.19841 -6.92563 -3.33671 -9.1984 -1.32577 -5.15621 -0.48704 2.66504 -11.7488 0 3.50156 -11.6359 0 12.3226 -10.4455 -13.0815 -7.21093 9.15432 -11.6848 3.1418 0 -10.4554 12.3243 0 -13.0815 -7.21093 -9.15432 -12.8812 -7.21095 -2.94401 -12.8816 -7.21099 0 -12.8419 -6.92563 -3.33672 -12.8812 -7.21095 -2.94401 -12.0857 -1.32577 -5.15622 -12.8419 -6.92563 -3.33672 -12.0239 -0.864121 -5.00622 -12.0857 -1.32577 -5.15622 -11.5844 2.42142 -0.484059 -12.0239 -0.864121 -5.00622 -11.5844 2.42142 0.484059 -12.0239 -0.864121 5.00622 -12.0857 -1.32577 5.15622 -12.0239 -0.864121 5.00622 -12.8419 -6.92563 3.33672 -12.0857 -1.32577 5.15622 -12.8812 -7.21095 2.94401 -12.8419 -6.92563 3.33672 -12.8812 -7.21095 2.94401 0 -7.21095 12.9815 3.24401 -7.21094 12.9811 -3.24401 -7.21094 12.9811 0 -7.21095 12.9815 -5.24895 -1.04044 12.1483 -3.24401 -7.21094 12.9811 -0.48704 2.41928 11.6816 0.48704 2.41928 11.6816 5.24895 -1.04044 12.1483 3.24401 -7.21094 12.9811 5.24895 -1.04044 -12.1483 0.48704 2.41928 -11.6816 0.48704 2.66504 -11.7488 -0.48704 2.41928 -11.6816 -5.24895 -1.04044 -12.1483 -3.24401 -7.21094 -12.9811 -3.24401 -7.21094 -12.9811 0 -7.21095 -12.9815 3.24401 -7.21094 -12.9811 0 -7.21095 -12.9815 3.24401 -7.21094 -12.9811 -5.24895 -1.04044 -12.1483 -0.48704 2.41928 -11.6816 0 2.77313 -11.1468 -3.24401 -7.21094 -12.9811 -5.24895 -1.04044 -12.1483 -3.24401 -7.21094 -12.9811 0 -7.21095 -12.9815 3.24401 -7.21094 -12.9811 0 -7.21095 -12.9815 3.24401 -7.21094 -12.9811 5.24895 -1.04044 -12.1483 0 3.50156 -11.6359 0 12.3226 -10.4455 0 2.77313 11.1468 -0.48704 2.41928 11.6816 -5.24895 -1.04044 12.1483 -0.48704 2.41928 11.6816 0.48704 2.41928 11.6816 -0.48704 2.66504 11.7488 0.48704 2.66504 11.7488 0.48704 2.41928 11.6816 -0.48704 2.41928 11.6816 0 2.77313 11.1468 -0.48704 2.66504 11.7488 0 2.77313 -11.1468 0.48704 2.41928 -11.6816 5.24895 -1.04044 -12.1483 0.48704 2.41928 -11.6816 -0.48704 2.41928 -11.6816 0.48704 2.66504 -11.7488 -0.48704 2.66504 -11.7488 0.48704 2.41928 -11.6816 0 2.77313 -11.1468 -0.48704 2.41928 -11.6816 0.48704 2.66504 -11.7488</float_array>
          <technique_common>
            <accessor source="#geom-GamemodelShape-positions-array" count="355" stride="3">
              <param name="X" type="float"/>
              <param name="Y" type="float"/>
              <param name="Z" type="float"/>
            </accessor>
          </technique_common>
        </source>
        <source id="geom-GamemodelShape-normals">
          <float_array id="geom-GamemodelShape-normals-array" count="1065">-1 -5.37336e-5 3.05176e-5 -0.7095364 0.6104064 -0.3520824 -0.9051009 -3.94422e-5 -0.4251971 -0.7474093 0.6643639 3.05314e-5 -0.9051009 -3.94422e-5 0.4251971 -0.6570854 0.7538161 1.92386e-4 -0.5933656 0.6802949 -0.4302511 -0.6570854 0.7538161 3.68074e-4 -0.4251971 3.1035e-5 -0.9051009 -0.355494 0.6084416 -0.709523 -0.5933656 0.6802949 -0.4302511 -0.6232644 0.7820112 3.05282e-5 -0.6486971 0.7610467 4.85376e-5 -0.7049661 0.6624629 0.253309 -0.65264 0.7576682 -1.02984e-4 -0.355494 0.6084416 0.709523 -0.4251971 3.1035e-5 0.9051009 -0.6224458 0.7138095 0.3209944 -0.6570854 0.7538161 -1.01918e-4 -0.4323779 0.6795905 0.5926264 -0.6224458 0.7138095 0.3209944 -0.3509629 0.9363894 3.05291e-5 -0.347672 0.9375424 -0.01177269 -0.3524025 0.9358326 0.005452867 3.05176e-5 -3.40343e-5 1 3.05254e-5 0.6354162 0.7721699 8.62087e-5 0.7565264 0.6539631 1.76881e-4 0.7538161 0.6570854 -0.4323779 0.6795905 0.5926264 3.05336e-5 0.7679809 0.6404727 0.004666405 0.8883797 0.4590857 3.05315e-5 0.8885886 0.4587052 -0.4323779 0.6795905 -0.5926264 8.62683e-5 0.7565264 -0.6539631 3.05254e-5 0.6354162 -0.7721699 1.77e-4 0.7538161 -0.6570854 -0.4323779 0.6795905 -0.5926264 3.05176e-5 -3.40343e-5 -1 3.05336e-5 0.7679809 -0.6404727 0.004666405 0.8883797 -0.4590857 3.05315e-5 0.8885886 -0.4587052 3.05176e-5 -1 3.05176e-5 3.05176e-5 -1 3.05176e-5 3.12626e-5 -1 -3.1203e-5 3.05176e-5 -1 3.05176e-5 3.05176e-5 -1 3.05176e-5 3.12626e-5 -1 3.12328e-5 -3.12924e-5 -1 3.05176e-5 3.05176e-5 -1 3.09944e-5 3.05176e-5 -1 3.09944e-5 0.04566014 0.1480902 0.9879193 0.01123319 0.1372402 0.990474 -0.55726 0.1175814 0.8219707 -0.4929761 0.1221453 0.8614263 -0.8204032 0.1172615 0.5596322 0.417332 0.2532319 0.8727586 0.3602411 -0.02677385 0.9324749 0.004482738 0.1276989 0.9918029 0.003009892 0.1283 0.9917309 3.05268e-5 0.1337072 0.9910209 3.05268e-5 0.1337072 0.9910209 -0.8622057 0.1218812 0.491677 -0.9901341 0.1387262 -0.01973735 -0.9837117 0.1615505 -0.07882149 -0.9350821 0.3200764 -0.1522255 -0.99115 0.1327477 3.05307e-5 -0.99115 0.1327477 3.05307e-5 -0.992732 0.1200629 -0.008263102 -0.9925052 0.1218041 -0.009852702 -0.7996837 0.1899066 -0.5695976 -0.815227 0.3084577 -0.490162 -0.6516172 0.6286592 -0.4244793 -0.7396271 -0.4452907 -0.5046465 -0.7487829 -0.5451022 -0.3770779 -0.992732 0.1200629 0.008263102 -0.8622057 0.1218812 -0.491677 -0.9925052 0.1218041 0.009852702 -0.7487829 -0.5451022 0.3770779 -0.9901341 0.1387262 0.01973735 -0.8204032 0.1172615 -0.5596322 -0.4929761 0.1221453 -0.8614263 -0.7396271 -0.4452907 0.5046465 -0.7996837 0.1899066 0.5695976 -0.9837117 0.1615505 0.07882149 -0.815227 0.3084577 0.490162 -0.9351552 0.3198572 0.1522374 -0.55726 0.1175814 -0.8219707 0.003009892 0.1283 -0.9917309 0.004482738 0.1276989 -0.9918029 3.05268e-5 0.1337072 -0.9910209 3.05268e-5 0.1337072 -0.9910209 0.01123319 0.1372402 -0.990474 0.04566014 0.1480902 -0.9879193 0.417332 0.2532319 -0.8727586 0.3602413 -0.0267586 -0.9324754 0.2419042 -0.2561913 -0.9358676 -0.003009892 0.1283 -0.9917309 -0.6516172 0.6286592 0.4244793 0.2419042 -0.2561913 0.9358676 3.05176e-5 -1 -3.25441e-5 0.5656043 -0.1147205 0.8166584 3.05318e-5 -0.5090256 0.8607515 3.05283e-5 0.320913 0.9471087 0.5877359 -0.8090529 -3.22048e-5 0.5877359 -0.8090529 3.05349e-5 0.9510736 0.3089646 -3.16332e-5 0.4012385 0.3672932 0.8391087 3.05176e-5 1 -3.15011e-5 0.9510736 0.3089646 -3.16332e-5 3.12328e-5 1 -3.15011e-5 -0.8274899 0.5339117 0.1737778 -0.8682811 0.4898121 0.07856283 -0.8957906 0.4444762 1.68496e-4 -0.177939 0.5324736 0.8275323 -0.8957906 0.4444762 4.04247e-5 -0.07669238 0.4853113 0.8709714 -0.8707973 0.4857027 -0.07618866 -0.8269294 0.5333768 -0.1780365 -0.07868839 0.488857 -0.8688078 -0.1742264 0.5333014 -0.8277891 3.2074e-5 0.4456501 -0.8952072 3.29385e-5 0.4456501 -0.8952072 3.05302e-5 0.4423221 0.8968563 3.05302e-5 0.4423221 0.8968563 -0.1394315 0.2678746 -0.9533111 -3.12158e-5 -0.3089646 -0.9510736 -0.9310896 -0.2840654 -0.2288644 0.007725407 -0.8267292 -0.562547 -0.8894893 -0.4569562 3.05289e-5 3.05349e-5 -0.8090529 -0.5877359 -0.9535716 0.3011664 3.05319e-5 -0.9593744 0.2811202 -0.02392025 -0.1372212 0.353308 -0.9253885 -3.15438e-5 0.3089646 -0.9510736 -3.12158e-5 -0.3089646 -0.9510736 -3.26931e-5 1 3.05176e-5 -3.27826e-5 1 -3.37362e-5 3.05349e-5 0.8090529 -0.5877359 3.05349e-5 0.8090529 -0.5877359 -0.9593744 0.2811202 0.02392025 -0.9310896 -0.2840654 0.2288644 0.007721593 -0.8267292 0.562547 3.05349e-5 -0.8090529 0.5877359 -3.12755e-5 -0.3089646 0.9510736 -0.1394315 0.2678746 0.9533111 -0.1372212 0.353308 0.9253885 3.05349e-5 0.8090529 0.5877359 3.05349e-5 0.8090529 0.5877359 -3.26335e-5 1 3.39448e-5 -3.16034e-5 0.3089646 0.9510736 -3.16034e-5 0.3089646 0.9510736 -3.12755e-5 -0.3089646 0.9510736 -3.15438e-5 0.3089646 -0.9510736 0.5656043 -0.1147205 -0.8166584 3.05176e-5 -1 3.25441e-5 3.05318e-5 -0.5090256 -0.8607515 3.05283e-5 0.320913 -0.9471087 0.5877359 -0.8090529 3.22346e-5 0.4012385 0.3672932 -0.8391087 0.9510736 0.3089646 3.16332e-5 0.5877359 -0.8090529 3.05349e-5 0.9510736 0.3089646 3.16332e-5 3.12328e-5 1 3.15309e-5 3.05176e-5 1 3.15309e-5 0.7097423 0.6091181 -0.3538942 1 -5.37336e-5 3.05176e-5 0.9051009 -3.94422e-5 -0.4251971 0.7684215 0.6399441 3.05317e-5 0.9051009 -3.94422e-5 0.4251971 0.6573628 0.7535741 3.05239e-5 0.592075 0.6785414 -0.4347745 0.4251971 3.1035e-5 -0.9051009 0.355494 0.6084416 -0.709523 0.592075 0.6785414 -0.4347745 0.6573628 0.7535741 3.05239e-5 0.6573628 0.7535741 3.05239e-5 0.7097423 0.6091181 0.3538942 0.355494 0.6084416 0.709523 0.4251971 3.1035e-5 0.9051009 0.592075 0.6785414 0.4347745 0.4323779 0.6795905 0.5926264 0.592075 0.6785414 0.4347745 3.05254e-5 0.6354162 0.7721699 -8.62087e-5 0.7565264 0.6539631 3.05176e-5 -3.40343e-5 1 0.4323779 0.6795905 0.5926264 -1.76881e-4 0.7538161 0.6570854 3.05336e-5 0.7679809 0.6404727 -0.004666405 0.8883797 0.4590857 3.05315e-5 0.8885886 0.4587052 0.4323779 0.6795905 -0.5926264 -8.62087e-5 0.7565264 -0.6539631 3.05254e-5 0.6354162 -0.7721699 -1.76881e-4 0.7538161 -0.6570854 0.4323779 0.6795905 -0.5926264 3.05176e-5 -3.40343e-5 -1 3.05336e-5 0.7679809 -0.6404727 -0.004666405 0.8883797 -0.4590857 3.05315e-5 0.8885886 -0.4587052 3.05176e-5 -1 3.05176e-5 -3.12626e-5 -1 -3.1203e-5 3.05176e-5 -1 3.05176e-5 3.05176e-5 -1 3.05176e-5 3.05176e-5 -1 3.05176e-5 -3.12626e-5 -1 3.12328e-5 3.12924e-5 -1 3.05176e-5 3.05176e-5 -1 3.09944e-5 3.05176e-5 -1 3.09944e-5 0.55726 0.1175814 0.8219707 0.4929761 0.1221453 0.8614263 -0.01123319 0.1372402 0.990474 -0.04566014 0.1480902 0.9879193 0.8245265 0.1177808 0.5534292 -0.003009892 0.1283 0.9917309 -0.004482738 0.1276989 0.9918029 3.05268e-5 0.1337072 0.9910209 3.05268e-5 0.1337072 0.9910209 0.9138316 0.1273552 0.3856066 -0.417332 0.2532319 0.8727586 -0.3602411 -0.02677385 0.9324749 -0.2419042 -0.2561913 0.9358676 0.003009892 0.1283 0.9917309 0.9911659 0.1326277 -3.22009e-5 0.9911494 0.1327476 -0.001059989 0.9911659 0.1326277 -3.21711e-5 0.9910209 0.1337072 3.05268e-5 0.9911494 0.1327476 0.00110006 0.9911494 0.1327476 0.001061897 0.8533868 0.1209616 -0.5070495 0.8251223 0.1178572 -0.5525241 0.9910209 0.1337072 3.05268e-5 0.55726 0.1175814 -0.8219707 0.4929761 0.1221453 -0.8614263 -0.01122556 0.1372402 -0.9904741 -0.04566014 0.1480902 -0.9879193 -0.003009892 0.1283 -0.9917309 -0.004490368 0.1276989 -0.9918029 3.05268e-5 0.1337072 -0.9910209 3.05268e-5 0.1337072 -0.9910209 -0.3602446 -0.02640776 -0.932484 -0.417332 0.2532319 -0.8727586 -0.2419042 -0.2561913 -0.9358676 3.05349e-5 -0.8090529 -0.5877359 0.7966835 -0.1414101 -0.5876212 3.05349e-5 -0.8090529 -0.5877359 0.9445264 0.3284354 3.05237e-5 0.8319653 0.3742134 -0.4096318 0.8289562 -0.5593134 3.05302e-5 3.1514e-5 0.3089646 -0.9510736 0.7966835 -0.1414101 0.5876212 0.8319653 0.3742134 0.4096318 3.25143e-5 1 3.05176e-5 3.25143e-5 1 -3.38852e-5 3.1514e-5 0.3089646 -0.9510736 3.25143e-5 1 3.38852e-5 3.1514e-5 0.3089646 0.9510736 3.1514e-5 0.3089646 0.9510736 3.05349e-5 -0.8090529 0.5877359 3.05349e-5 -0.8090529 0.5877359 -0.9510736 0.3089646 -3.16332e-5 -0.4012385 0.3672932 0.8391087 -0.9510736 0.3089646 -3.16332e-5 -0.5656043 -0.1147205 0.8166584 3.05176e-5 1 -3.15011e-5 -3.12328e-5 1 -3.15011e-5 3.05283e-5 0.320913 0.9471087 3.05318e-5 -0.5090256 0.8607515 3.05176e-5 -1 -3.25441e-5 -0.5877359 -0.8090529 -3.22346e-5 -0.5877359 -0.8090529 3.05349e-5 0.8274899 0.5339117 0.1737778 0.8957906 0.4444762 1.65276e-4 0.8683849 0.4896265 0.07857223 0.177939 0.5324736 0.8275323 0.8709047 0.4855184 -0.076137 0.8269114 0.5333652 -0.1781547 0.8957906 0.4444762 3.78013e-5 0.07669238 0.4853113 0.8709714 3.05302e-5 0.4423221 0.8968563 3.05302e-5 0.4423221 0.8968563 0.07862772 0.4888593 -0.8688119 0.1742264 0.5333014 -0.8277891 3.2074e-5 0.4456501 -0.8952072 3.29385e-5 0.4456501 -0.8952072 3.05176e-5 -1 3.25441e-5 -0.5656043 -0.1147205 -0.8166584 3.05318e-5 -0.5090256 -0.8607515 3.05283e-5 0.320913 -0.9471087 -0.5877359 -0.8090529 3.22048e-5 -0.5877359 -0.8090529 3.05349e-5 -0.9510736 0.3089646 3.16332e-5 -0.4012385 0.3672932 -0.8391087 -3.12328e-5 1 3.15011e-5 3.05176e-5 1 3.15309e-5 -0.9510736 0.3089646 3.16332e-5 -0.3856209 0.9226573 3.10341e-5 -0.3704095 0.9273666 0.05280227 -0.3856209 0.9226573 3.10639e-5 -0.3714768 0.9271045 0.04982332 -0.05280227 0.9273666 0.3704095 -0.3704101 0.9273681 -0.05277184 -0.3714756 0.9271016 -0.04988422 -0.05283748 0.9274489 -0.3701982 -0.04955372 0.9272012 -0.3712713 -3.12346e-5 0.9229035 -0.3850314 -3.13538e-5 0.9229035 -0.3850314 3.05302e-5 0.9227442 0.385413 3.05302e-5 0.9227442 0.385413 -0.04957968 0.9271157 0.3714813 0.04643241 0.9246187 -0.3780533 -3.12346e-5 0.9229035 -0.3850314 0.04963933 0.924647 -0.3775764 0.2767316 0.9022474 -0.3307101 -3.13538e-5 0.9229035 -0.3850314 0.3692004 0.9278847 -0.05216299 0.3685071 0.9279835 -0.05522112 0.3878172 0.9216763 0.01050898 0.3860323 0.9224733 0.004715528 0.3860323 0.9224733 0.004719343 0.3704089 0.9273651 0.05283271 0.3714768 0.9271045 0.04982332 0.05280227 0.9273666 0.3704095 0.04957968 0.9271157 0.3714813 3.05302e-5 0.9227442 0.385413 3.05302e-5 0.9227442 0.385413 -3.93152e-4 0.9999999 3.66449e-4 -4.74691e-4 0.9999999 2.40684e-4 3.05176e-5 1 3.05176e-5 -1.45912e-4 1 3.13222e-5 3.05176e-5 1 4.22895e-5 -4.91142e-4 0.9999999 -2.49624e-4 -3.86476e-4 0.9999999 -3.4833e-4 3.05176e-5 1 -4.20511e-5 3.05176e-5 1 -4.20511e-5 3.86476e-4 0.9999999 -3.4833e-4 3.05176e-5 1 3.05176e-5 4.91142e-4 0.9999999 -2.49624e-4 1.45912e-4 1 3.13222e-5 4.74691e-4 0.9999999 2.40207e-4 3.93152e-4 0.9999999 3.65972e-4 3.05176e-5 1 4.22895e-5 0.2419042 -0.2561913 0.9358676 -0.2419042 -0.2561913 0.9358676 0.003009892 0.1283 0.9917309 -0.003009892 0.1283 0.9917309 3.05305e-5 -0.8338496 -0.5519918 3.05305e-5 -0.8338496 -0.5519918 3.05305e-5 -0.8338496 -0.5519918 -0.2419042 -0.2561913 -0.9358676 0.2419042 -0.2561913 -0.9358676 -0.003009892 0.1283 -0.9917309 0.003009892 0.1283 -0.9917309 3.05305e-5 -0.8338496 0.5519918 3.05305e-5 -0.8338496 0.5519918 3.05305e-5 -0.8338496 0.5519918</float_array>
          <technique_common>
            <accessor source="#geom-GamemodelShape-normals-array" count="355" stride="3">
              <param name="X" type="float"/>
              <param name="Y" type="float"/>
              <param name="Z" type="float"/>
            </accessor>
          </technique_common>
        </source>
        <source id="geom-GamemodelShape-map-2">
          <float_array id="geom-GamemodelShape-map-2-array" count="1065">1 1 1 1 1 1 1 1 1 1 1 1 1 1 1 1 1 1 1 1 1 1 1 1 1 1 1 1 1 1 1 1 1 1 1 1 1 1 1 1 1 1 1 1 1 1 1 1 1 1 1 1 1 1 1 1 1 1 1 1 1 1 1 1 1 1 1 1 1 1 1 1 1 1 1 1 1 1 1 1 1 1 1 1 1 1 1 1 1 1 1 1 1 1 1 1 1 1 1 1 1 1 1 1 1 1 1 1 1 1 1 1 1 1 1 1 1 1 1 1 1 1 1 1 1 1 1 1 1 1 1 1 1 1 1 1 1 1 1 1 1 1 1 1 1 1 1 1 1 1 1 1 1 1 1 1 1 1 1 1 1 1 1 1 1 1 1 1 1 1 1 1 1 1 1 1 1 1 1 1 1 1 1 1 1 1 1 1 1 1 1 1 1 1 1 1 1 1 1 1 1 1 1 1 1 1 1 1 1 1 1 1 1 1 1 1 1 1 1 1 1 1 1 1 1 1 1 1 1 1 1 1 1 1 1 1 1 1 1 1 1 1 1 1 1 1 1 1 1 1 1 1 1 1 1 1 1 1 1 1 1 1 1 1 1 1 1 1 1 1 1 1 1 1 1 1 1 1 1 1 1 1 1 1 1 1 1 1 1 1 1 1 1 1 1 1 1 1 1 1 1 1 1 1 1 1 1 1 1 1 1 1 1 1 1 1 1 1 1 1 1 1 1 1 1 1 1 1 1 1 1 1 1 1 1 1 1 1 1 1 1 1 1 1 1 1 1 1 1 1 1 1 1 1 1 1 1 1 1 1 1 1 1 1 1 1 1 1 1 1 1 1 1 1 1 1 1 1 1 1 1 1 1 1 1 1 1 1 1 1 1 1 1 1 1 1 1 1 1 1 1 1 1 1 1 1 1 1 1 1 1 1 1 1 1 1 1 1 1 1 1 1 1 1 1 1 1 1 1 1 1 1 1 1 1 1 1 1 1 1 1 1 1 1 1 1 1 1 1 1 1 1 1 1 1 1 1 1 1 1 1 1 1 1 1 1 1 1 1 1 1 1 1 1 1 1 1 1 1 1 1 1 1 1 1 1 1 1 1 1 1 1 1 1 1 1 1 1 1 1 1 1 1 1 1 1 1 1 1 1 1 1 1 1 1 1 1 1 1 1 1 1 1 1 1 1 1 1 1 1 1 1 1 1 1 1 1 1 1 1 1 1 1 1 1 1 1 1 1 1 1 1 1 1 1 1 1 1 1 1 1 1 1 1 1 1 1 1 1 1 1 1 1 1 1 1 1 1 1 1 1 1 1 1 1 1 1 1 1 1 1 1 1 1 1 1 1 1 1 1 1 1 1 1 1 1 1 1 1 1 1 1 1 1 1 1 1 1 1 1 1 1 1 1 1 1 1 1 1 1 1 1 1 1 1 1 1 1 1 1 1 1 1 1 1 1 1 1 1 1 1 1 1 1 1 1 1 1 1 1 1 1 1 1 1 1 1 1 1 1 1 1 1 1 1 1 1 1 1 1 1 1 1 1 1 1 1 1 1 1 1 1 1 1 1 1 1 1 1 1 1 1 1 1 1 1 1 1 1 1 1 1 1 1 1 1 1 1 1 1 1 1 1 1 1 1 1 1 1 1 1 1 1 1 1 1 1 1 1 1 1 1 1 1 1 1 1 1 1 1 1 1 1 1 1 1 1 1 1 1 1 1 1 1 1 1 1 1 1 1 1 1 1 1 1 1 1 1 1 1 1 1 1 1 1 1 1 1 1 1 1 1 1 1 1 1 1 1 1 1 1 1 1 1 1 1 1 1 1 1 1 1 1 1 1 1 1 1 1 1 1 1 1 1 1 1 1 1 1 1 1 1 1 1 1 1 1 1 1 1 1 1 1 1 1 1 1 1 1 1 1 1 1 1 1 1 1 1 1 1 1 1 1 1 1 1 1 1 1 1 1 1 1 1 1 1 1 1 1 1 1 1 1 1 1 1 1 1 1 1 1 1 1 1 1 1 1 1 1 1 1 1 1 1 1 1 1 1 1 1 1 1 1 1 1 1 1 1 1 1 1 1 1 1 1 1 1 1 1 1 1 1 1 1 1 1 1 1 1 1 1 1 1 1 1 1 1 1 1 1 1 1 1 1 1 1 1 1 1 1 1 1 1 1 1 1 1 1 1 1 1 1 1 1 1 1 1 1 1 1 1 1 1 1 1 1 1 1 1 1 1 1 1 1 1 1 1 1 1 1 1 1 1 1 1 1 1 1 1 1 1 1 1 1 1 1 1 1 1 1 1 1 1 1 1 1 1 1 1 1 1 1 1 1 1 1 1 1 1 1 1 1 1 1 1 1 1 1 1 1 1 1 1 1 1 1 1 1 1 1 1 1 1 1 1</float_array>
          <technique_common>
            <accessor source="#geom-GamemodelShape-map-2-array" count="355" stride="3">
              <param name="R" type="float"/>
              <param name="G" type="float"/>
              <param name="B" type="float"/>
            </accessor>
          </technique_common>
        </source>
        <source id="geom-GamemodelShape-map0">
          <float_array id="geom-GamemodelShape-map0-array" count="1065">0.5019608 0.5019608 0.5019608 0.5019608 0.5019608 0.5019608 0.5019608 0.5019608 0.5019608 0.5019608 0.5019608 0.5019608 0.5019608 0.5019608 0.5019608 0.5019608 0.5019608 0.5019608 0.5019608 0.5019608 0.5019608 0.5019608 0.5019608 0.5019608 0.5019608 0.5019608 0.5019608 0.5019608 0.5019608 0.5019608 0.5019608 0.5019608 0.5019608 0.5019608 0.5019608 0.5019608 0.5019608 0.5019608 0.5019608 0.5019608 0.5019608 0.5019608 0.5019608 0.5019608 0.5019608 0.5019608 0.5019608 0.5019608 0.5019608 0.5019608 0.5019608 0.5019608 0.5019608 0.5019608 0.5019608 0.5019608 0.5019608 0.5019608 0.5019608 0.5019608 0.5019608 0.5019608 0.5019608 0.5019608 0.5019608 0.5019608 0.5019608 0.5019608 0.5019608 0.5019608 0.5019608 0.5019608 0.5019608 0.5019608 0.5019608 0.5019608 0.5019608 0.5019608 0.5019608 0.5019608 0.5019608 0.5019608 0.5019608 0.5019608 0.5019608 0.5019608 0.5019608 0.5019608 0.5019608 0.5019608 0.5019608 0.5019608 0.5019608 0.5019608 0.5019608 0.5019608 0.5019608 0.5019608 0.5019608 0.5019608 0.5019608 0.5019608 0.5019608 0.5019608 0.5019608 0.5019608 0.5019608 0.5019608 0.5019608 0.5019608 0.5019608 0.5019608 0.5019608 0.5019608 0.5019608 0.5019608 0.5019608 0.5019608 0.5019608 0.5019608 0.5019608 0.5019608 0.5019608 0.5019608 0.5019608 0.5019608 0.5019608 0.5019608 0.5019608 0.5019608 0.5019608 0.5019608 0.5019608 0.5019608 0.5019608 0.5019608 0.5019608 0.5019608 0.5019608 0.5019608 0.5019608 0.5019608 0.5019608 0.5019608 0.5019608 0.5019608 0.5019608 0.5019608 0.5019608 0.5019608 0.5019608 0.5019608 0.5019608 0.5019608 0.5019608 0.5019608 0.5019608 0.5019608 0.5019608 0.5019608 0.5019608 0.5019608 0.5019608 0.5019608 0.5019608 0.5019608 0.5019608 0.5019608 0.5019608 0.5019608 0.5019608 0.5019608 0.5019608 0.5019608 0.5019608 0.5019608 0.5019608 0.5019608 0.5019608 0.5019608 0.5019608 0.5019608 0.5019608 0.5019608 0.5019608 0.5019608 0.5019608 0.5019608 0.5019608 0.5019608 0.5019608 0.5019608 0.5019608 0.5019608 0.5019608 0.5019608 0.5019608 0.5019608 0.5019608 0.5019608 0.5019608 0.5019608 0.5019608 0.5019608 0.5019608 0.5019608 0.5019608 0.5019608 0.5019608 0.5019608 0.5019608 0.5019608 0.5019608 0.5019608 0.5019608 0.5019608 0.5019608 0.5019608 0.5019608 0.5019608 0.5019608 0.5019608 0.5019608 0.5019608 0.5019608 0.5019608 0.5019608 0.5019608 0.5019608 0.5019608 0.5019608 0.5019608 0.5019608 0.5019608 0.5019608 0.5019608 0.5019608 0.5019608 0.5019608 0.5019608 0.5019608 0.5019608 0.5019608 0.5019608 0.5019608 0.5019608 0.5019608 0.5019608 0.5019608 0.5019608 0.5019608 0.5019608 0.5019608 0.5019608 0.5019608 0.5019608 0.5019608 0.5019608 0.5019608 0.5019608 0.5019608 0.5019608 0.5019608 0.5019608 0.5019608 0.5019608 0.5019608 0.5019608 0.5019608 0.5019608 0.5019608 0.5019608 0.5019608 0.5019608 0.5019608 0.5019608 0.5019608 0.5019608 0.5019608 0.5019608 0.5019608 0.5019608 0.5019608 0.5019608 0.5019608 0.5019608 0.5019608 0.5019608 0.5019608 0.5019608 0.5019608 0.5019608 0.5019608 0.5019608 0.5019608 0.5019608 0.5019608 0.5019608 0.5019608 0.5019608 0.5019608 0.5019608 0.5019608 0.5019608 0.5019608 0.5019608 0.5019608 0.5019608 0.5019608 0.5019608 0.5019608 0.5019608 0.5019608 0.5019608 0.5019608 0.5019608 0.5019608 0.5019608 0.5019608 0.5019608 0.5019608 0.5019608 0.5019608 0.5019608 0.5019608 0.5019608 0.5019608 0.5019608 0.5019608 0.5019608 0.5019608 0.5019608 0.5019608 0.5019608 0.5019608 0.5019608 0.5019608 0.5019608 0.5019608 0.5019608 0.5019608 0.5019608 0.5019608 0.5019608 0.5019608 0.5019608 0.5019608 0.5019608 0.5019608 0.5019608 0.5019608 0.5019608 0.5019608 0.5019608 0.5019608 0.5019608 0.5019608 0.5019608 0.5019608 0.5019608 0.5019608 0.5019608 0.5019608 0.5019608 0.5019608 0.5019608 0.5019608 0.5019608 0.5019608 0.5019608 0.5019608 0.5019608 0.5019608 0.5019608 0.5019608 0.5019608 0.5019608 0.5019608 0.5019608 0.5019608 0.5019608 0.5019608 0.5019608 0.5019608 0.5019608 0.5019608 0.5019608 0.5019608 0.5019608 0.5019608 0.5019608 0.5019608 0.5019608 0.5019608 0.5019608 0.5019608 0.5019608 0.5019608 0.5019608 0.5019608 0.5019608 0.5019608 0.5019608 0.5019608 0.5019608 0.5019608 0.5019608 0.5019608 0.5019608 0.5019608 0.5019608 0.5019608 0.5019608 0.5019608 0.5019608 0.5019608 0.5019608 0.5019608 0.5019608 0.5019608 0.5019608 0.5019608 0.5019608 0.5019608 0.5019608 0.5019608 0.5019608 0.5019608 0.5019608 0.5019608 0.5019608 0.5019608 0.5019608 0.5019608 0.5019608 0.5019608 0.5019608 0.5019608 0.5019608 0.5019608 0.5019608 0.5019608 0.5019608 0.5019608 0.5019608 0.5019608 0.5019608 0.5019608 0.5019608 0.5019608 0.5019608 0.5019608 0.5019608 0.5019608 0.5019608 0.5019608 0.5019608 0.5019608 0.5019608 0.5019608 0.5019608 0.5019608 0.5019608 0.5019608 0.5019608 0.5019608 0.5019608 0.5019608 0.5019608 0.5019608 0.5019608 0.5019608 0.5019608 0.5019608 0.5019608 0.5019608 0.5019608 0.5019608 0.5019608 0.5019608 0.5019608 0.5019608 0.5019608 0.5019608 0.5019608 0.5019608 0.5019608 0.5019608 0.5019608 0.5019608 0.5019608 0.5019608 0.5019608 0.5019608 0.5019608 0.5019608 0.5019608 0.5019608 0.5019608 0.5019608 0.5019608 0.5019608 0.5019608 0.5019608 0.5019608 0.5019608 0.5019608 0.5019608 0.5019608 0.5019608 0.5019608 0.5019608 0.5019608 0.5019608 0.5019608 0.5019608 0.5019608 0.5019608 0.5019608 0.5019608 0.5019608 0.5019608 0.5019608 0.5019608 0.5019608 0.5019608 0.5019608 0.5019608 0.5019608 0.5019608 0.5019608 0.5019608 0.5019608 0.5019608 0.5019608 0.5019608 0.5019608 0.5019608 0.5019608 0.5019608 0.5019608 0.5019608 0.5019608 0.5019608 0.5019608 0.5019608 0.5019608 0.5019608 0.5019608 0.5019608 0.5019608 0.5019608 0.5019608 0.5019608 0.5019608 0.5019608 0.5019608 0.5019608 0.5019608 0.5019608 0.5019608 0.5019608 0.5019608 0.5019608 0.5019608 0.5019608 0.5019608 0.5019608 0.5019608 0.5019608 0.5019608 0.5019608 0.5019608 0.5019608 0.5019608 0.5019608 0.5019608 0.5019608 0.5019608 0.5019608 0.5019608 0.5019608 0.5019608 0.5019608 0.5019608 0.5019608 0.5019608 0.5019608 0.5019608 0.5019608 0.5019608 0.5019608 0.5019608 0.5019608 0.5019608 0.5019608 0.5019608 0.5019608 0.5019608 0.5019608 0.5019608 0.5019608 0.5019608 0.5019608 0.5019608 0.5019608 0.5019608 0.5019608 0.5019608 0.5019608 0.5019608 0.5019608 0.5019608 0.5019608 0.5019608 0.5019608 0.5019608 0.5019608 0.5019608 0.5019608 0.5019608 0.5019608 0.5019608 0.5019608 0.5019608 0.5019608 0.5019608 0.5019608 0.5019608 0.5019608 0.5019608 0.5019608 0.5019608 0.5019608 0.5019608 0.5019608 0.5019608 0.5019608 0.5019608 0.5019608 0.5019608 0.5019608 0.5019608 0.5019608 0.5019608 0.5019608 0.5019608 0.5019608 0.5019608 0.5019608 0.5019608 0.5019608 0.5019608 0.5019608 0.5019608 0.5019608 0.5019608 0.5019608 0.5019608 0.5019608 0.5019608 0.5019608 0.5019608 0.5019608 0.5019608 0.5019608 0.5019608 0.5019608 0.5019608 0.5019608 0.5019608 0.5019608 0.5019608 0.5019608 0.5019608 0.5019608 0.5019608 0.5019608 0.5019608 0.5019608 0.5019608 0.5019608 0.5019608 0.5019608 0.5019608 0.5019608 0.5019608 0.5019608 0.5019608 0.5019608 0.5019608 0.5019608 0.5019608 0.5019608 0.5019608 0.5019608 0.5019608 0.5019608 0.5019608 0.5019608 0.5019608 0.5019608 0.5019608 0.5019608 0.5019608 0.5019608 0.5019608 0.5019608 0.5019608 0.5019608 0.5019608 0.5019608 0.5019608 0.5019608 0.5019608 0.5019608 0.5019608 0.5019608 0.5019608 0.5019608 0.5019608 0.5019608 0.5019608 0.5019608 0.5019608 0.5019608 0.5019608 0.5019608 0.5019608 0.5019608 0.5019608 0.5019608 0.5019608 0.5019608 0.5019608 0.5019608 0.5019608 0.5019608 0.5019608 0.5019608 0.5019608 0.5019608 0.5019608 0.5019608 0.5019608 0.5019608 0.5019608 0.5019608 0.5019608 0.5019608 0.5019608 0.5019608 0.5019608 0.5019608 0.5019608 0.5019608 0.5019608 0.5019608 0.5019608 0.5019608 0.5019608 0.5019608 0.5019608 0.5019608 0.5019608 0.5019608 0.5019608 0.5019608 0.5019608 0.5019608 0.5019608 0.5019608 0.5019608 0.5019608 0.5019608 0.5019608 0.5019608 0.5019608 0.5019608 0.5019608 0.5019608 0.5019608 0.5019608 0.5019608 0.5019608 0.5019608 0.5019608 0.5019608 0.5019608 0.5019608 0.5019608 0.5019608 0.5019608 0.5019608 0.5019608 0.5019608 0.5019608 0.5019608 0.5019608 0.5019608 0.5019608 0.5019608 0.5019608 0.5019608 0.5019608 0.5019608 0.5019608 0.5019608 0.5019608 0.5019608 0.5019608 0.5019608 0.5019608 0.5019608 0.5019608 0.5019608 0.5019608 0.5019608 0.5019608 0.5019608 0.5019608 0.5019608 0.5019608 0.5019608 0.5019608 0.5019608 0.5019608 0.5019608 0.5019608 0.5019608 0.5019608 0.5019608 0.5019608 0.5019608 0.5019608 0.5019608 0.5019608 0.5019608 0.5019608 0.5019608 0.5019608 0.5019608 0.5019608 0.5019608 0.5019608 0.5019608 0.5019608 0.5019608 0.5019608 0.5019608 0.5019608 0.5019608 0.5019608 0.5019608 0.5019608 0.5019608 0.5019608 0.5019608 0.5019608 0.5019608 0.5019608 0.5019608 0.5019608 0.5019608 0.5019608 0.5019608 0.5019608 0.5019608 0.5019608 0.5019608 0.5019608 0.5019608 0.5019608 0.5019608 0.5019608 0.5019608 0.5019608 0.5019608 0.5019608 0.5019608 0.5019608 0.5019608 0.5019608 0.5019608 0.5019608 0.5019608 0.5019608 0.5019608 0.5019608 0.5019608 0.5019608 0.5019608 0.5019608 0.5019608 0.5019608 0.5019608 0.5019608 0.5019608 0.5019608 0.5019608 0.5019608 0.5019608 0.5019608 0.5019608 0.5019608 0.5019608 0.5019608 0.5019608 0.5019608 0.5019608 0.5019608 0.5019608 0.5019608 0.5019608 0.5019608 0.5019608 0.5019608 0.5019608 0.5019608 0.5019608 0.5019608 0.5019608 0.5019608 0.5019608 0.5019608 0.5019608 0.5019608 0.5019608 0.5019608 0.5019608 0.5019608 0.5019608 0.5019608 0.5019608 0.5019608 0.5019608 0.5019608 0.5019608 0.5019608 0.5019608 0.5019608 0.5019608 0.5019608 0.5019608 0.5019608 0.5019608 0.5019608 0.5019608 0.5019608 0.5019608 0.5019608 0.5019608 0.5019608 0.5019608 0.5019608 0.5019608 0.5019608 0.5019608 0.5019608 0.5019608 0.5019608 0.5019608 0.5019608 0.5019608 0.5019608 0.5019608 0.5019608 0.5019608 0.5019608 0.5019608 0.5019608 0.5019608 0.5019608 0.5019608 0.5019608 0.5019608 0.5019608 0.5019608 0.5019608 0.5019608 0.5019608 0.5019608 0.5019608 0.5019608 0.5019608 0.5019608 0.5019608 0.5019608 0.5019608 0.5019608 0.5019608 0.5019608 0.5019608 0.5019608 0.5019608 0.5019608 0.5019608 0.5019608 0.5019608 0.5019608 0.5019608 0.5019608 0.5019608 0.5019608 0.5019608 0.5019608 0.5019608 0.5019608 0.5019608 0.5019608 0.5019608 0.5019608 0.5019608 0.5019608 0.5019608 0.5019608 0.5019608 0.5019608 0.5019608 0.5019608 0.5019608 0.5019608 0.5019608 0.5019608 0.5019608 0.5019608 0.5019608 0.5019608 0.5019608 0.5019608 0.5019608 0.5019608 0.5019608 0.5019608 0.5019608 0.5019608 0.5019608 0.5019608 0.5019608 0.5019608 0.5019608 0.5019608 0.5019608 0.5019608 0.5019608 0.5019608 0.5019608 0.5019608 0.5019608 0.5019608 0.5019608 0.5019608 0.5019608 0.5019608 0.5019608 0.5019608 0.5019608 0.5019608 0.5019608 0.5019608 0.5019608 0.5019608 0.5019608 0.5019608 0.5019608</float_array>
          <technique_common>
            <accessor source="#geom-GamemodelShape-map0-array" count="355" stride="3">
              <param name="R" type="float"/>
              <param name="G" type="float"/>
              <param name="B" type="float"/>
            </accessor>
          </technique_common>
        </source>
        <source id="geom-GamemodelShape-map1">
          <float_array id="geom-GamemodelShape-map1-array" count="1065">0.5078125 0.02392578 0 0.3823242 0.02392578 0 0.5078125 0.05224609 0 0.3825684 0.05224609 0 0.0791626 0.206543 0 0.08184814 0.2119141 0 0.1713867 0.05224609 0 0.1676025 0.2119141 0 0.5595703 0.5852051 0 0.6962891 0.7202148 0 0.6962891 0.5808105 0 0.3266602 0.2119141 0 0.2270508 0.2119141 0 0.1713867 0.02392578 0 0.0960083 0.269043 0 0.1280518 0.7329102 0 0.1555176 0.269043 0 0.1557617 0.7329102 0 0.4719238 0.2060547 0 0.4665527 0.2119141 0 0.470459 0.2119141 0 0.02619934 0.02392578 0 0.02619934 0.05224609 0 0.9448242 0.4829102 0 0.9038086 0.3701172 0 0.8374023 0.4829102 0 0.8374023 0.4130859 0 0.796875 0.4829102 0 0.796875 0.4130859 0 0.894043 0.3095703 0 0.824707 0.3359375 0 0.0635376 0.4125977 0 0.06335449 0.4228516 0 0.1557617 0.744873 0 0.1392822 0.7807617 0 0.1604004 0.7550049 0 0.1446533 0.7895508 0 0.2663574 0.744873 0 0.2663574 0.7563477 0 0.5595703 0.8435059 0 0.6347656 0.8435059 0 0.5595703 0.7143555 0 0.8227539 0.8015137 0 0.7553711 0.7546387 0 0.8222656 0.8044434 0 0.7587891 0.7630615 0 0.6328125 0.05224609 0 0.6328125 0.02392578 0 0.9345703 0.206543 0 0.8427734 0.05224609 0 0.9316406 0.2119141 0 0.8461914 0.2119141 0 0.6962891 0.4414062 0 0.6879883 0.2119141 0 0.7871094 0.2119141 0 0.8422852 0.02392578 0 0.3769531 0.7329102 0 0.4047852 0.7329102 0 0.376709 0.269043 0 0.4365234 0.269043 0 0.5507813 0.2119141 0 0.5493164 0.2070312 0 0.546875 0.2119141 0 0.3935547 0.7788086 0 0.3769531 0.744873 0 0.3881836 0.7874756 0 0.3720703 0.7548828 0 0.9873047 0.05224609 0 0.9873047 0.02392578 0 0.1424561 0.9859619 0 0.1484375 0.9859619 0 0.9873047 0.2060547 0 0.9868164 0.8297119 0 0.9868164 0.6152344 0 0.9301758 0.7478027 0 0.9516602 0.6152344 0 0.4689941 0.4125977 0 0.4992676 0.269043 0 0.0333252 0.269043 0 0.3908691 0.9859619 0 0.3850098 0.9859619 0 0.6347656 0.3178711 0 0.5595703 0.3178711 0 0.2209473 0.2758789 0 0.1998291 0.4008789 0 0.2241211 0.2758789 0 0.203125 0.4101562 0 0.3112793 0.2758789 0 0.3081055 0.2763672 0 0.3327637 0.4013672 0 0.3293457 0.4111328 0 0.862793 0.6914063 0 0.8227539 0.5812988 0 0.7553711 0.6914063 0 0.7553711 0.6281738 0 0.5078125 0.2060547 0 0.5078125 0.2119141 0 0.5454102 0.2060547 0 0.02619934 0.2060547 0 0.4692383 0.4228516 0 -0.4938965 0.02392578 0 -0.4938965 0.05224609 0 -0.3684082 0.02392578 0 -0.3686523 0.05224609 0 -0.06518555 0.206543 0 -0.1574707 0.05224609 0 -0.06787109 0.2119141 0 -0.1536865 0.2119141 0 -0.4401855 0.5852051 0 -0.3032227 0.5808105 0 -0.3032227 0.7202148 0 -0.3127441 0.2119141 0 -0.2131348 0.2119141 0 -0.1574707 0.02392578 0 -0.5629883 0.269043 0 -0.6225586 0.269043 0 -0.5947266 0.7329102 0 -0.6225586 0.7329102 0 -0.6689453 0.4169922 0 -0.1512451 0.8426514 0 -0.1778564 0.8041992 0 -0.1148071 0.7233887 0 -0.1368408 0.6914063 0 -0.1879883 0.8664551 0 -0.2441406 0.7611084 0 -0.2570801 0.8404541 0 -0.2858887 0.6914063 0 -0.2441406 0.6914063 0 -0.2858887 0.7611084 0 -0.4528809 0.2119141 0 -0.3833008 0.2119141 0 -0.01226044 0.02392578 0 -0.01226044 0.05224609 0 -0.04788208 0.6152344 0 -0.06939697 0.7478027 0 -0.01302338 0.6152344 0 -0.01302338 0.8297119 0 -0.01302338 0.5339355 0 -0.04788208 0.5339355 0 -0.09954834 0.7282715 0 -0.08648682 0.5900879 0 -0.0880127 0.7990723 0 -0.03393555 0.8653564 0 -0.02532959 0.8636475 0 -0.480957 0.5087891 0 -0.4763184 0.5288086 0 -0.4851074 0.7331543 0 -0.6225586 0.744873 0 -0.6274414 0.7550049 0 -0.605957 0.7807617 0 -0.6113281 0.7895508 0 -0.7333984 0.744873 0 -0.7333984 0.7563477 0 -0.4401855 0.8435059 0 -0.4401855 0.7143555 0 -0.3649902 0.8435059 0 -0.6186523 0.05224609 0 -0.6186523 0.02392578 0 -0.9204102 0.206543 0 -0.9179688 0.2119141 0 -0.8286133 0.05224609 0 -0.8320313 0.2119141 0 -0.3032227 0.4414062 0 -0.6738281 0.2119141 0 -0.7734375 0.2119141 0 -0.8286133 0.02392578 0 -0.871582 0.7329102 0 -0.84375 0.7329102 0 -0.9033203 0.269043 0 -0.84375 0.269043 0 -0.7973633 0.4179687 0 -0.8432617 0.7329102 0 -0.7333984 0.5119629 0 -0.7333984 0.7331543 0 -0.1778564 0.5786133 0 -0.1148071 0.6594238 0 -0.1512451 0.5400391 0 -0.2570801 0.5422363 0 -0.1879883 0.5161133 0 -0.2441406 0.621582 0 -0.2858887 0.621582 0 -0.6044922 0.2119141 0 -0.534668 0.2119141 0 -0.8608398 0.7788086 0 -0.8549805 0.7874756 0 -0.84375 0.744873 0 -0.8393555 0.7548828 0 -0.9736328 0.05224609 0 -0.9736328 0.02392578 0 -0.609375 0.9859619 0 -0.6152344 0.9859619 0 -0.9736328 0.2060547 0 -0.05505371 0.4829102 0 -0.0960083 0.3701172 0 -0.1623535 0.4829102 0 -0.1623535 0.4130859 0 -0.9663086 0.269043 0 -0.9360352 0.4125977 0 -0.5302734 0.4125977 0 -0.5 0.269043 0 -0.8579102 0.9859619 0 -0.8520508 0.9859619 0 -0.3649902 0.3178711 0 -0.4401855 0.3178711 0 -0.6918945 0.269043 0 -0.7739258 0.269043 0 -0.4938965 0.2119141 0 -0.01226044 0.2060547 0 -0.9360352 0.4228516 0 0.1557617 0.744873 0 0.1557617 0.7329102 0 0.1287842 0.744873 0 0.1280518 0.7329102 0 0.2663574 0.7331543 0 0.2663574 0.744873 0 0.3769531 0.744873 0 0.3769531 0.7329102 0 0.4038086 0.744873 0 0.4047852 0.7329102 0 0.5146484 0.7331543 0 0.5141602 0.744873 0 -0.871582 0.7329102 0 -0.8710938 0.744873 0 -0.84375 0.7329102 0 -0.84375 0.737793 0 -0.84375 0.744873 0 -0.7333984 0.744873 0 -0.7333984 0.7331543 0 -0.8432617 0.7329102 0 -0.6225586 0.744873 0 -0.5957031 0.744873 0 -0.6225586 0.7329102 0 -0.5947266 0.7329102 0 -0.4851074 0.7331543 0 -0.4855957 0.744873 0 0.2039795 0.4277344 0 0.2050781 0.4213867 0 0.2600098 0.5065918 0 0.2727051 0.5065918 0 0.2600098 0.5024414 0 0.2727051 0.5024414 0 0.2283936 0.269043 0 0.2243652 0.269043 0 0.3051758 0.269043 0 0.3010254 0.269043 0 0.3276367 0.4223633 0 0.3286133 0.4287109 0 -0.6274414 0.7550049 0 -0.7333984 0.7563477 0 -0.7314453 0.9859619 0 -0.6113281 0.7895508 0 -0.6152344 0.9859619 0 0.2644043 0.9859619 0 0.1446533 0.7895508 0 0.1484375 0.9859619 0 0.1604004 0.7550049 0 0.2663574 0.7563477 0 0.3720703 0.7548828 0 0.3881836 0.7874756 0 0.3850098 0.9859619 0 -0.8549805 0.7874756 0 -0.8520508 0.9859619 0 -0.8393555 0.7548828 0 0.01820374 0.7331543 0 0.01870728 0.744873 0 -0.9814453 0.7331543 0 -0.980957 0.744873 0 -0.5302734 0.4228516 0 0.01391602 0.5087891 0 0.009399414 0.5288086 0 0.01820374 0.7331543 0 0.7587891 0.6196289 0 0.8217773 0.5786133 0 0.5185547 0.5087891 0 0.5234375 0.5288086 0 0.5146484 0.7331543 0 0.3972168 0.2119141 0 0.2663574 0.5205078 0 0.2663574 0.7331543 0 0.6186523 0.2119141 0 0.7133789 0.6281738 0 0.7133789 0.6914063 0 0.75 0.5397949 0 0.7426758 0.5422363 0 0.8115234 0.5161133 0 0.75 0.5397949 0 0.8500977 0.5461426 0 0.8486328 0.5400391 0 0.8823242 0.6501465 0 0.8500977 0.5461426 0 0.8823242 0.7321777 0 0.8505859 0.8348389 0 0.8486328 0.8426514 0 0.8505859 0.8348389 0 0.7470703 0.842041 0 0.8115234 0.8664551 0 0.7426758 0.8404541 0 0.7470703 0.842041 0 0.7133789 0.7546387 0 -0.01226044 0.2119141 0 -0.0647583 0.2119141 0 0.07867432 0.2119141 0 0.02619934 0.2119141 0 0.06234741 0.4179687 0 0.03103638 0.269043 0 0.01365662 0.5031738 0 -0.4807129 0.5031738 0 -0.5292969 0.4179687 0 -0.4980469 0.269043 0 -0.9375 0.4179687 0 -0.9863281 0.5031738 0 -0.9858398 0.5087891 0 0.519043 0.5031738 0 0.4702148 0.4179687 0 0.5014648 0.269043 0 0.9350586 0.2119141 0 0.9873047 0.2119141 0 -0.9208984 0.2119141 0 -0.9736328 0.2119141 0 -0.96875 0.269043 0 0.9116211 0.7990723 0 0.9658203 0.8653564 0 0.9746094 0.8636475 0 0.9130859 0.5900879 0 0.9003906 0.7282715 0 0.9516602 0.5339355 0 0.9868164 0.5339355 0 -0.2030029 0.4130859 0 -0.2030029 0.4829102 0 -0.1748047 0.3359375 0 -0.105835 0.3095703 0 -0.9902344 0.5288086 0 -0.9814453 0.7331543 0 0.9614258 0.4584961 0 0.9624023 0.440918 0 0.9291992 0.3330078 0 0.5297852 0.5041504 0 0.519043 0.5031738 0 0.5288086 0.5102539 0 0.5185547 0.5087891 0 0.9658203 0.4521484 0 0.9624023 0.440918 0 0.9614258 0.4584961 0 -0.4694824 0.5080566 0 -0.03811646 0.4584961 0 -0.03726196 0.440918 0 -0.07037354 0.3330078 0 0.5297852 0.5041504 0 0.519043 0.5031738 0 0.5288086 0.5102539 0 0.5185547 0.5087891 0 0.5297852 0.5041504 0 0.5268555 0.5 0 0.519043 0.5031738 0 0.5288086 0.5102539 0</float_array>
          <technique_common>
            <accessor source="#geom-GamemodelShape-map1-array" count="355" stride="3">
              <param name="S" type="float"/>
              <param name="T" type="float"/>
              <param name="P" type="float"/>
            </accessor>
          </technique_common>
        </source>
        <source id="geom-GamemodelShape-map1-textangents">
          <float_array id="geom-GamemodelShape-map1-textangents-array" count="1065">-3.05176e-5 -1.63982e-9 -1 0.354092 -0.07641361 -0.8460647 0.3924065 5.88374e-7 -0.8353008 -0.001198764 -0.001302654 -0.9999872 -0.3924066 -1.14076e-6 -0.8353009 -0.1309583 -0.1140847 -0.2695925 0.2552976 -0.2926958 -0.814883 -0.1893951 -0.1648731 -0.447657 0.835301 3.51454e-6 -0.3924066 0.8403736 0.05867917 -0.3707349 0.6386672 0.07846316 -0.7567326 -1.90272e-5 2.38734e-5 -1 -0.01750794 -0.014885 -0.6009982 -0.3080367 0.005805249 -0.8724568 0.05257239 0.04519218 -0.6813489 -0.8445304 -0.07838262 -0.3559211 -0.8353012 -5.69685e-6 -0.3924067 -0.1998031 0.2291272 -0.8969618 0.104591 0.09112071 -0.3626979 -0.7560998 0.07700793 -0.6399558 -0.5744249 -0.1521518 -0.7755306 -1.07146e-5 2.85872e-5 -1 0.1800438 0.06622387 -0.04319264 -0.249328 -0.09515773 0.2178485 -1 -1.03864e-9 3.05176e-5 -0.9999999 -1.70085e-4 1.79495e-4 -0.6617325 -0.09536975 0.1104141 -0.4362228 -0.1589462 0.1824624 -0.8130504 -0.2938418 -0.2562371 -0.9999981 -7.21274e-4 9.12542e-4 -0.4359475 -0.1060512 0.2096516 -1 7.79867e-5 -8.4513e-5 0.7560991 -0.07700923 -0.6399568 0.7759583 -0.1251694 -0.1446978 0.9999999 1.22715e-4 1.40514e-4 0.6265916 -0.2101703 -0.240941 0.8130504 0.2938418 -0.2562371 1 1.03864e-9 3.05176e-5 0.9999981 7.21274e-4 9.12542e-4 0.6265829 -0.1540492 -0.2917327 1 -7.79867e-5 -8.4513e-5 -0.9999998 -3.05315e-5 -4.55989e-4 -0.9999999 -3.05338e-5 -5.30393e-4 -1 -3.12558e-5 -2.17991e-4 -1 -3.05176e-5 9.31323e-10 -0.9999996 -3.05432e-5 -8.38979e-4 -0.9999998 -3.12736e-5 -3.50113e-4 -0.9999998 3.12734e-5 -6.24809e-4 -1 -3.05175e-5 1.40572e-6 -1 -3.05176e-5 9.45874e-10 -0.9588814 -0.02510916 0.04808191 -0.844771 0.1390105 -0.009680533 -0.7300064 -0.02791904 -0.4909185 -0.7791134 -0.01570611 -0.4436432 -0.4982562 0.02688825 -0.7360619 -0.9028911 0.00683245 0.4297581 -0.726067 0.3166229 0.289591 -0.832751 0.1865215 -0.0202516 -0.9846059 0.02003204 3.9671e-4 -0.9999995 9.84365e-4 -1.02006e-4 -0.9998881 0.01096353 -0.001448385 -0.4350232 0.03143593 -0.7706501 0.04283397 0.1875013 -0.8309133 0.02803086 -0.1859276 -0.7309045 -0.1100977 -0.345637 -0.05045012 -3.02605e-5 4.05288e-6 -0.9999991 -3.02569e-5 4.0524e-6 -0.99988 0.009671299 0.01373684 -0.9623193 0.04804652 0.3361714 -0.6840099 0.3458997 0.6085563 -0.2827286 0.04646308 -0.1969292 -0.2012035 -0.5311717 0.02089992 0.8463537 0.0924071 0.4508554 -0.5332614 0.3340042 0.1355244 -0.8591629 -0.007215238 0.006759109 -0.965054 0.4357964 -0.0254959 -0.7705334 0.02661067 0.2692347 -0.647806 -0.4379985 -0.002956503 -0.8740301 0.00601464 0.1526302 -0.7710517 0.4983971 -0.02580165 -0.7360408 0.7791133 0.0157054 -0.4436432 -0.5634526 0.3620121 -0.5063827 -0.1972569 0.5687254 -0.4665537 -0.07008501 -0.1730695 -0.5199595 -0.3142712 -0.3919126 -0.2760596 -0.1754453 -0.4918555 -0.0443061 0.7300064 0.02791904 -0.4909185 0.9879122 -0.03140261 -0.001064259 0.8201141 0.1794735 0.02681472 0.9999995 -9.84365e-4 -1.02006e-4 0.9992058 -0.02900483 -0.003882514 0.8337215 0.1649014 0.03230421 0.9588814 0.02510916 0.04808191 0.9028911 -0.00683245 0.4297581 0.6927112 0.3127303 0.2586395 0.9635278 -0.04419143 0.2611511 0.9978332 -0.06474395 -0.01140432 -0.636557 -0.7575276 0.1447307 -0.9635277 0.0441929 0.2611515 0.4812518 -1.14682e-5 0.8036519 0.01381663 0.7422635 0.09470062 0.236524 0.675486 0.3994561 -4.62549e-4 0.6993228 -0.2369546 0.4853741 0.3525678 0.799876 0.4966742 0.3608384 0.7893734 -0.2938324 0.904461 -0.3092052 -0.005336267 0.6647544 -0.2884235 -1.32449e-6 -3.1501e-5 -1 -0.2936182 0.9038017 -0.3113371 -2.64804e-6 -3.1501e-5 -1 -0.07526533 0.1868214 -0.9323829 0.01674072 0.1781043 -0.9253996 -1.17973e-4 1.41321e-4 -0.9999831 -0.2893974 0.724878 -0.5286481 3.19785e-5 1.55396e-4 -0.9999738 -0.1668574 0.8163981 -0.4695951 0.03173145 -0.09279194 -0.9542226 0.03776372 -0.2457268 -0.9115709 0.2166112 -0.7788296 -0.4578471 0.2436675 -0.7560643 -0.5383779 0.1545639 -0.8727087 -0.4344444 3.17695e-4 -0.8945951 -0.4453453 -0.1532407 0.8745392 -0.4313103 1.23285e-6 0.8961247 -0.4419613 -0.2485483 0.6768241 0.2265362 -0.8610528 0.4021716 -0.1306207 -0.1910222 0.7137551 -0.1087731 -0.8778973 0.1922951 -0.2946564 -0.3155749 0.6142833 0.001233039 -0.8283361 0.3292477 -0.4532717 0.2216734 0.701876 3.57618e-6 0.1832202 0.6412327 0.1875659 0.3060028 0.8276696 0.2706238 0.3077664 0.9049075 0.2939569 -0.7365433 0.6433041 -0.2089588 1 3.26931e-5 8.31777e-10 1 3.27826e-5 -1.10596e-9 0.4204816 0.5163354 0.7107878 0.2160344 0.5738516 0.7899516 0.1691934 0.5961359 -0.2201475 -0.2089072 0.8178897 0.1652633 -0.8726405 0.1969404 0.3014051 -0.8169863 0.3389019 0.4665608 -0.5187621 0.803348 0.2609576 -0.1376477 0.7910848 -0.2424223 0.2533245 0.835503 -0.281426 0.4552879 0.5108251 -0.7032044 0.2842658 0.5634821 -0.7756809 1 3.26335e-5 1.10774e-9 0.3020814 0.9066344 -0.2945181 0.2978286 0.9079161 -0.2949346 -0.6312263 0.7376575 0.2396137 0.3045262 0.9059043 0.2942808 0.6680606 0.1342683 0.4438265 0.6547639 3.9097e-5 0.5873918 0.8275322 0.04779078 -0.02823289 1 8.1724e-6 3.50022e-5 0.6546198 0.4755715 0.587626 0.6412793 -0.06115394 0.2798738 0.09536169 -0.2936455 0.9511457 0.6548627 0.4757467 0.5872136 0.09551103 -0.2941053 0.9509888 1 -3.12308e-5 -6.32067e-5 1 -3.05137e-5 -1.23179e-4 0.3700362 0.05749288 0.8410713 -3.05176e-5 1.63982e-9 1 0.3924065 -5.88374e-7 0.8353008 -2.26928e-5 -2.04613e-5 1 -0.3924066 1.14076e-6 0.8353009 -1.1394e-5 -3.05662e-5 1 0.2574198 0.2950116 0.8109706 0.835301 -3.51454e-6 0.3924066 0.8403736 -0.05867917 0.3707349 0.6412502 -0.07547134 0.7554669 -2.00653e-5 -2.3002e-5 1 -2.87366e-5 -1.54378e-5 1 -0.3898463 -0.03114823 0.835457 -0.8445304 0.07838262 0.3559211 -0.8353012 5.69685e-6 0.3924067 -0.2574198 -0.2950116 0.8109706 -0.7560998 -0.07700793 0.6399558 -0.6412492 0.07547004 0.7554676 -0.9999999 2.08878e-4 -1.32353e-4 -0.6617325 0.09536975 -0.1104141 -1 -1.03864e-9 3.05176e-5 -0.8130504 0.2938418 0.2562371 -0.4362228 0.1589462 -0.1824624 -0.999998 7.68172e-4 -8.7343e-4 -0.4359475 0.1060512 -0.2096516 -1 -2.37268e-5 1.12523e-4 0.7560991 0.07700923 0.6399568 0.9804586 -0.04350804 -0.05046082 0.9999999 -1.61507e-4 -9.33721e-5 0.9674415 -0.07180384 -0.08263465 0.8130504 -0.2938418 0.2562371 1 1.03864e-9 3.05176e-5 0.999998 -7.68172e-4 -8.7343e-4 0.9677133 -0.05506884 -0.1164005 1 2.37268e-5 1.12523e-4 0.9999998 3.05037e-5 -4.55991e-4 1 -3.12558e-5 -2.17991e-4 0.9999999 3.05014e-5 -5.30395e-4 1 3.05176e-5 -9.31323e-10 0.9999996 3.0492e-5 -8.38981e-4 0.9999998 -3.12736e-5 -3.50113e-4 0.9999998 3.12734e-5 -6.24809e-4 1 3.05176e-5 1.40383e-6 1 3.05176e-5 -9.45874e-10 -0.7300064 0.02791904 0.4909185 -0.7791134 0.01570611 0.4436432 -0.721858 -0.1307102 0.009924459 -0.9588814 0.02510916 -0.04808191 -0.5030682 -0.01777807 0.7532796 -0.9883312 -0.007405185 -0.002041554 -0.6863025 -0.1751892 0.01945443 -0.9999995 -9.76202e-4 1.62511e-4 -0.999764 0.00297765 -3.70945e-4 -0.3571999 -0.01314894 0.8508545 -0.9028911 -0.00683245 -0.4297581 -0.4286759 -0.2603579 -0.173085 -0.9635277 -0.0441929 -0.2611515 -0.9995061 0.03124735 -0.001008971 -1.13017e-4 0.001087345 0.9997719 -0.001072425 0.01599045 0.9997843 3.77237e-5 -3.93534e-5 0.999999 -3.04772e-5 -2.41768e-6 1 -3.77877e-4 -0.005464158 0.9998421 3.24267e-4 -0.01041883 0.9997936 0.4655881 0.01281887 0.7866635 0.4876416 0.027066 0.7340021 -3.00282e-5 -5.74562e-6 1 0.7503256 -0.01506975 0.5065321 0.7697185 -0.0240967 0.4370769 0.844211 0.1387529 0.009657715 0.9588814 -0.02510916 -0.04808191 0.9846012 0.02009006 -3.8919e-4 0.8320556 0.1865487 0.02025186 0.9999995 9.76202e-4 1.62511e-4 0.9998881 0.01095536 0.001508883 0.7249901 0.317548 -0.2890768 0.9028911 0.00683245 -0.4297581 0.9634478 0.04501957 -0.2613572 0.8095337 0.3450641 -0.4749589 0.1152174 0.744958 -0.02306371 0.8094783 0.345109 -0.4750206 -0.2234969 0.6427405 -2.05845e-4 -0.2930875 0.7523718 0.09205581 0.4384464 0.6498197 1.24243e-6 -0.3090396 0.9045206 0.2938312 0.1154242 0.7451844 0.02283785 -0.2958822 0.6642044 -0.005835576 -1 3.25143e-5 8.08636e-10 -1 3.25143e-5 -9.70687e-10 -0.3086286 0.9046477 0.2938725 -1 3.25143e-5 1.18914e-9 -0.3084934 0.9046889 -0.2938859 -0.3094206 0.9044029 -0.2937929 0.8091613 0.3453656 0.475374 0.8088996 0.3455774 0.4756655 -0.09536169 -0.2936455 -0.9511457 -0.6808167 -0.07840571 -0.2912281 -0.09551103 -0.2941053 -0.9509888 -0.6680606 0.1342683 -0.4438265 -1 3.05196e-5 6.32048e-5 -1 -3.1229e-5 1.23179e-4 -1 4.71585e-5 1.62542e-5 -0.8275094 0.04776506 0.02827638 -0.6547348 -8.65708e-7 -0.5873918 -0.6546198 0.4755715 -0.587626 -0.6548838 0.4757177 -0.5872136 -0.07530151 -0.1867682 0.9323917 -1.12843e-4 -1.44418e-4 0.9999832 0.01670306 -0.1781266 0.9254012 -0.2894344 -0.7248558 0.5286418 0.03176606 0.09265941 0.954241 0.03786471 0.2457747 0.9115584 3.42934e-5 -1.54159e-4 0.9999738 -0.1668574 -0.8163981 0.4695951 -0.1532407 -0.874535 0.4313187 -1.23285e-6 -0.8961247 0.4419613 0.2162993 0.7788396 0.4578093 0.2432197 0.7561925 0.5383663 0.1540645 0.8727507 0.4344763 -3.17695e-4 0.8945951 0.4453453 -0.4812305 -4.08408e-5 -0.8036519 -0.01381663 0.7422635 -0.09470062 -0.2365245 0.6754786 -0.3994685 3.59462e-4 0.6004758 0.2034619 -0.4853741 0.3525678 -0.799876 -0.4967025 0.3607994 -0.7893734 0.2938324 0.904461 0.3092052 0.09084102 0.7538932 0.2865552 1.32451e-6 -3.1501e-5 1 -9.62245e-10 -3.15309e-5 1 0.2936182 0.9038017 0.3113371 -1.69542e-5 2.65495e-5 -0.9999962 -0.219759 -0.03627717 -0.9044794 -2.1757e-5 2.45744e-5 -0.9999925 -0.4208407 -0.1250094 -0.8115844 -0.8579754 0.07960922 -0.321617 0.2197262 0.03629283 -0.9044977 0.4208434 0.1249557 -0.8116085 0.857959 -0.07953071 -0.3217009 0.8578599 -0.08276826 -0.3212017 0.9999977 3.70135e-4 8.06075e-4 0.9999957 0.001013993 0.002349064 -0.9999977 -3.26137e-4 8.60041e-4 -0.9999957 -9.82995e-4 0.002432672 -0.8578648 0.08280907 -0.3211636 0.8578193 0.08722515 0.3186869 0.9999978 -3.07491e-4 -8.18166e-4 0.8450494 0.1059491 0.3705559 0.4586896 -0.0861527 0.1487793 0.9999959 -9.46335e-4 -0.002349756 0.2162875 -0.03525231 0.9037703 0.2564243 -0.07416444 0.4648733 0.00365043 -0.001537173 1.0237e-4 -0.00376771 -0.003534597 0.9998942 -0.001819838 -0.004354259 0.9999703 -0.2197549 0.0362452 0.9044896 -0.4208263 0.125003 0.8115948 -0.8579675 -0.07961399 0.3216278 -0.8578648 -0.08280907 0.3211636 -0.9999976 3.8248e-4 -8.36507e-4 -0.9999956 0.001039338 -0.002409138 0.01224409 -3.61581e-4 0.9998499 0.01266496 -2.34635e-4 0.9998497 0.004886965 -3.06651e-5 0.999948 1.0385e-4 -3.13071e-5 0.9999997 -6.60535e-10 -4.22895e-5 1 0.001995937 2.50603e-4 0.9999944 0.002312967 3.49222e-4 0.9999945 6.75548e-10 4.20511e-5 1 -6.75548e-10 -4.20511e-5 -1 0.002312967 -3.49222e-4 -0.9999945 0.004886967 3.03669e-5 -0.999948 0.001995937 -2.50603e-4 -0.9999944 1.0385e-4 3.13071e-5 -0.9999997 0.01266496 2.34159e-4 -0.9998497 0.01224409 3.61104e-4 -0.9998499 6.60535e-10 4.22895e-5 -1 0.9414824 0.06197375 -0.2263903 0.9261699 -0.1830003 0.1893016 0.9838646 -0.1161688 0.01204272 0.9671513 -0.2312042 0.03284615 -1 -2.54579e-5 -1.68526e-5 -1 -2.54579e-5 -1.68526e-5 -1 -2.54579e-5 -1.68526e-5 -0.9414824 0.06197375 0.2263903 -0.9261699 -0.1830003 -0.1893016 -0.9838646 -0.1161688 -0.01204272 -0.9671513 -0.2312042 -0.03284615 -0.6048305 0.4395656 0.6640498 -0.6048305 0.4395656 0.6640498 -0.6048305 0.4395656 0.6640498</float_array>
          <technique_common>
            <accessor source="#geom-GamemodelShape-map1-textangents-array" count="355" stride="3">
              <param name="X" type="float"/>
              <param name="Y" type="float"/>
              <param name="Z" type="float"/>
            </accessor>
          </technique_common>
        </source>
        <source id="geom-GamemodelShape-map1-texbinormals">
          <float_array id="geom-GamemodelShape-map1-texbinormals-array" count="1065">-5.37336e-5 1 0 0.5903697 0.7877249 0.1759348 -3.59703e-5 1 -1.61937e-5 0.6643628 0.7474082 -0.001770051 -3.62248e-5 1 1.56519e-5 0.6336269 0.5524572 -0.5415791 0.753614 0.6573173 2.24184e-6 0.6573296 0.573219 -0.4892215 9.74918e-6 1 2.97091e-5 0.1998463 0.7910336 0.5782104 0.4842745 0.7286696 0.4842714 0.7820112 0.6232644 0 0.7604898 0.6482248 -0.03820882 0.6262483 0.7490684 -0.2161241 0.7537695 0.6492956 0.1012265 0.1749736 0.7890102 -0.5889373 7.60892e-6 1 -3.07145e-5 0.7536936 0.6572259 -2.24153e-6 0.7040549 0.6137579 0.3572226 0.4836598 0.7294857 -0.4836567 0.5166147 0.6828059 -0.5166095 0.9363894 0.3509629 0 0.2019704 0.08714675 0.9755067 -0.5932977 -0.2189019 -0.7746482 0 1 3.40343e-5 -2.45388e-4 0.7721698 -0.6354162 -0.2153099 0.638639 -0.7387705 -0.4850889 0.5746628 -0.6591294 -2.30915e-6 0.657237 -0.753684 -0.001162772 0.6404723 -0.7679804 -0.4744012 0.406107 -0.7810381 1.1087e-4 0.4587051 -0.8885885 0.4836612 0.7294855 0.4836556 0.2393951 0.6349317 0.7345418 -1.84041e-4 0.7721698 0.6354162 0.4545103 0.5852326 0.6715082 -2.30915e-6 0.657237 0.753684 0 1 -3.40343e-5 -0.001162772 0.6404723 0.7679804 0.4658638 0.4042968 0.7870927 1.1087e-4 0.4587051 0.8885885 -4.5599e-4 3.05037e-5 0.9999999 -5.30394e-4 3.05014e-5 0.9999999 -2.1799e-4 -3.12098e-5 1 0 3.05176e-5 1 -8.3898e-4 3.0492e-5 0.9999996 -3.50114e-4 3.12219e-5 0.9999999 -6.24808e-4 3.05371e-5 0.9999998 1.40477e-6 3.09945e-5 1 0 3.09944e-5 1 -0.0332422 0.9886282 -0.1466601 0.1623651 0.9771409 -0.1372342 0.03950879 0.9925565 -0.1151981 0.04534285 0.9923577 -0.1147618 0.1139826 0.9926407 -0.04089624 -0.1028679 0.9673815 -0.2314979 0.3592652 0.9264671 -0.1121928 0.2197438 0.9674443 -0.1255558 0.02012114 0.9915268 -0.1283347 9.89165e-4 0.9910204 -0.1337072 0.0110593 0.9909602 -0.1336994 0.1235261 0.9919096 -0.02926765 0.1308137 0.9656208 0.2246425 0.1758746 0.9556196 -0.2363457 0.1877531 0.08304754 -0.9786991 0.1327477 0.9911499 0 0.1327477 0.9911499 0 0.1199267 0.9926637 0.01537526 0.1047615 0.8895967 0.4445702 -0.388035 0.5604702 0.7316433 0.5557798 0.6546454 -0.5123946 -0.5412388 -0.7773997 -0.3204844 -0.6601076 0.6261334 0.4149878 -0.557506 0.8256547 -0.08649467 0.1201145 0.9927416 0.006054992 0.1202 0.9921271 0.03515427 0.1161745 0.91547 0.3852508 -0.4884728 0.8383641 0.2419502 0.1399142 0.9711078 0.1933229 0.1132922 0.9926771 0.04191592 0.04534354 0.9923577 0.1147614 -0.05097489 0.7847381 0.6177278 0.5416852 0.6374131 0.5479796 0.1273519 0.9358239 -0.3286565 -0.186577 0.6613534 -0.7264989 -0.1158344 0.1300215 -0.9847217 0.03950879 0.9925565 0.1151981 0.0316462 0.9912264 0.1283308 -0.2159967 0.9685233 0.1237253 9.89165e-4 0.9910204 0.1337072 0.02927421 0.990596 0.1336508 -0.1972564 0.9713761 0.1323569 -0.0332422 0.9886282 0.1466601 -0.1028679 0.9673815 0.2314979 -0.3546091 0.9206239 -0.1634139 0.1083412 0.9656139 -0.2363301 0.06567198 0.9896198 0.1278276 -0.4125411 0.1758962 -0.8937955 0.1083427 0.9656139 0.2363297 0.857935 4.29019e-5 -0.5137582 0.8244701 0.05649275 -0.5630787 0.9574573 -0.2483763 -0.1469171 0.9999998 5.8351e-4 -2.29946e-4 0.6472298 0.4702035 -0.6000019 0.6386558 0.4639279 -0.6139133 0.09550508 -0.2940869 -0.9509951 0.915944 -0.1535212 -0.37078 1 -3.05176e-5 -1.32353e-6 0.09616356 -0.2961138 -0.9502995 1 -3.12329e-5 -2.64705e-6 0.5559088 0.8225449 0.1199382 0.4957545 0.8511033 0.1727734 0.4444763 0.8957906 7.41589e-5 0.9349303 0.3538302 -0.02663905 0.4444763 0.8957906 1.5342e-4 0.9816751 0.1895922 -0.01920181 0.4905279 0.8687551 -0.0681689 0.5608836 0.8049069 -0.1937382 0.9692506 0.2413461 0.04801403 0.9514034 0.3079417 -0.001853006 0.9876632 0.1401691 0.06981404 0.9999999 2.69918e-4 1.71164e-4 0.9878758 0.1392202 -0.06869587 1 -1.46108e-5 -2.68355e-5 -0.9340259 -0.3553074 0.03677166 -0.440802 -0.8536835 0.277341 -0.2600989 0.07707069 0.9625013 -0.3719421 -0.5245763 0.765819 8.43028e-4 -0.00157419 0.9999984 -0.5602315 -0.4868567 0.6701576 2.76511e-5 -1.38282e-5 1 -0.09825342 -0.2534222 0.9623531 -0.9334107 0.266564 0.2401834 -0.9514614 0.2927009 0.09511801 -0.6763904 -0.7005004 0.2275859 1.65938e-10 -3.05176e-5 1 0 3.37362e-5 1 -0.902009 0.253758 0.3492659 -0.9763857 0.1269953 0.1747657 0.115792 0.3150078 0.9419991 0.272191 -0.1233048 0.9543102 0.3813236 0.5224891 0.7626253 0.5766571 0.4801864 0.6609747 0.8521238 0.4977268 0.1617189 0.9765386 0.1967439 0.08754495 0.9512645 -0.213459 0.2225556 0.8858258 -0.2727419 0.3753992 0.9587455 -0.1670969 0.2299689 0 -3.39448e-5 1 0.9532812 -0.2872952 0.09336203 0.9546194 -0.2832476 0.09204719 0.7755987 0.6003352 0.1950496 -0.952504 0.2896175 0.09411637 -0.07222636 0.9795807 -0.1876299 0.6677732 -3.84589e-6 -0.7443648 -0.06692525 0.8588206 -0.5078861 -1.89728e-5 0.9471087 0.320913 0.4754359 0.3453478 -0.8091326 -0.07329717 0.9260209 0.3702876 -0.2938797 0.9046066 0.3087419 0.4751014 0.3451065 -0.809432 -0.2938312 0.9044573 0.3092252 6.32057e-5 -3.15328e-5 1 1.23178e-4 -3.15346e-5 1 -0.5785549 0.7906172 0.2004959 5.37336e-5 1 0 3.59703e-5 1 -1.61937e-5 -0.6399441 0.7684215 1.20078e-6 3.62248e-5 1 1.56519e-5 -0.7535742 0.6573629 1.15069e-5 -0.7534829 0.6574675 1.11392e-6 -9.74918e-6 1 2.97091e-5 -0.1998463 0.7910336 0.5782104 -0.4827984 0.730626 0.4827953 -0.7535742 0.6573629 0 -0.7535742 0.6573629 -1.15069e-5 -0.563616 0.7923604 -0.2334567 -0.1749736 0.7890102 -0.5889373 -7.60892e-6 1 -3.07145e-5 -0.7534829 0.6574675 -1.11392e-6 -0.4836598 0.7294857 -0.4836567 -0.4827996 0.7306261 -0.482794 2.45388e-4 0.7721698 -0.6354162 0.2153099 0.638639 -0.7387705 0 1 3.40343e-5 2.30915e-6 0.657237 -0.753684 0.4850889 0.5746628 -0.6591294 0.001162772 0.6404722 -0.7679805 0.4744012 0.406107 -0.7810381 -1.1087e-4 0.4587051 -0.8885885 -0.4836612 0.7294855 0.4836556 0.06779917 0.6524628 0.7547818 1.84041e-4 0.7721698 0.6354162 0.1124392 0.6529335 0.7490228 2.30915e-6 0.657237 0.753684 0 1 -3.40343e-5 0.001162772 0.6404722 0.7679805 0.1318208 0.4556309 0.8803543 -1.1087e-4 0.4587051 0.8885885 -4.5599e-4 -3.05315e-5 -0.9999999 -2.1799e-4 3.12098e-5 -1 -5.30394e-4 -3.05338e-5 -0.9999999 0 -3.05176e-5 -1 -8.3898e-4 -3.05432e-5 -0.9999996 -3.50114e-4 -3.12219e-5 -0.9999999 -6.24808e-4 -3.05371e-5 -0.9999998 1.40477e-6 -3.09944e-5 -1 0 -3.09944e-5 -1 -0.03950879 0.9925565 -0.1151981 -0.04534285 0.9923577 -0.1147618 -0.1783203 0.9743838 -0.1370331 0.0332422 0.9886282 -0.1466601 -0.1087875 0.9928457 -0.04922031 -0.007165417 0.9917071 -0.1283187 -0.2487204 0.9605024 -0.124793 -9.89165e-4 0.9910204 -0.1337071 0.003001206 0.9910164 -0.1337067 -0.1229091 0.9917548 -0.03627247 0.1028679 0.9673815 -0.2314979 -0.4663098 0.870911 -0.1551423 -0.1083427 0.9656139 0.2363297 0.03111857 0.991243 -0.1283313 -0.1326276 0.9911653 -0.001092977 -0.1327475 0.9910209 -0.01599268 -0.1326277 0.9911659 4.4009e-5 -0.1337072 0.9910209 -1.67904e-6 -0.1327516 0.9911348 0.005366401 -0.1327514 0.9910951 0.01037124 -0.1111956 0.9925581 0.04963732 -0.1150835 0.9925559 0.03985682 -0.1337072 0.9910209 1.67904e-6 -0.05209925 0.9929238 0.1067149 -0.03684913 0.9921391 0.1195916 -0.1621761 0.9771722 0.1372352 0.0332422 0.9886282 0.1466601 -0.02018062 0.9915256 0.1283347 -0.2199487 0.9673981 0.1255525 -9.89165e-4 0.9910204 0.1337071 -0.0110593 0.9909603 0.1336987 -0.3604725 0.925895 0.1130394 0.1028679 0.9673815 0.2314979 -0.1091681 0.9655756 -0.2361059 -0.5870734 0.4757775 -0.6549661 -0.5847696 0.06540949 -0.808558 -0.5871497 0.475745 -0.6549213 1.28181e-4 -2.7569e-4 -1 -0.4216256 -0.05349099 -0.9051909 2.61947e-5 -1.57621e-5 -1 -0.9510492 -0.2939101 -0.09551079 0.5847111 -0.06578751 -0.8085697 0.377175 0.1600051 -0.9122157 1.83623e-10 3.05176e-5 -1 -1.31069e-10 -3.38852e-5 -1 -0.9511826 -0.2935192 -0.0953838 -8.73821e-11 3.38852e-5 -1 0.9512264 0.2933908 -0.09534209 0.9509253 0.2942725 -0.09562851 0.5875865 -0.4755587 -0.6546649 0.5879468 -0.4754048 -0.6544531 0.2938797 0.9046066 -0.3087419 0.05529621 0.9241259 -0.3780657 0.2938312 0.9044573 -0.3092252 0.07222636 0.9795807 0.1876299 -6.32057e-5 -3.14991e-5 -1 -1.23178e-4 -3.15049e-5 -1 3.9448e-5 0.9471087 -0.320913 0.06692709 0.8588225 0.5078825 -0.6677897 -4.46036e-5 0.74435 -0.4754359 0.3453478 0.8091326 -0.4750724 0.3451465 0.809432 -0.5559035 0.8225583 0.1198716 -0.4444763 0.8957906 7.92134e-5 -0.495574 0.8512051 0.1727898 -0.9349164 0.3538649 -0.02666439 -0.4903349 0.8688736 -0.06804707 -0.5609025 0.8048986 -0.193718 -0.4444763 0.8957906 1.53341e-4 -0.9816751 0.1895922 -0.01920181 -0.9878758 0.1392469 -0.06864178 -1 1.46108e-5 2.68355e-5 -0.9693312 0.2410438 0.04790473 -0.9515265 0.3075594 -0.0021252 -0.9877426 0.1397481 0.06953372 -0.9999999 -2.69918e-4 -1.71164e-4 -0.857945 -9.46313e-6 0.5137415 -0.8244701 0.05649275 0.5630787 -0.9574572 -0.2484065 0.1468671 -0.9999998 5.46775e-4 1.53033e-4 -0.6472298 0.4702035 0.6000019 -0.6386338 0.4639582 0.6139133 -0.09550508 -0.2940869 0.9509951 -0.9091096 -0.04774606 0.4138117 -1 -3.12329e-5 1.32353e-6 -1 3.05176e-5 0 -0.09616356 -0.2961138 0.9502995 0.9226573 0.3856209 -5.40487e-6 0.8984091 0.3721217 -0.2332093 0.9226573 0.3856209 -1.05979e-5 0.8086949 0.3494604 -0.4731702 0.3563504 0.3640042 -0.860532 0.8984188 0.3721163 0.2331806 0.808698 0.3494913 0.473142 0.356411 0.3638147 0.860587 0.3572136 0.3635929 0.860348 -8.86445e-4 0.3850312 0.9229031 -0.002558381 0.3850301 0.9229005 -9.19297e-4 0.3854129 -0.9227438 -0.002623595 0.3854117 -0.922741 0.3571826 0.3637998 -0.8602734 -0.35642 0.3688857 0.8584219 8.73483e-4 0.3850313 0.9229031 -0.4119753 0.3633393 0.8356201 -0.2158702 0.3937224 0.8935226 0.002532969 0.3850303 0.9229005 -0.8997771 0.3709353 0.2298005 -0.79711 0.3459854 0.4948836 -0.02789017 3.37861e-4 0.9996109 -0.9224776 0.3860449 -0.002111338 -0.9224835 0.3860366 2.13323e-6 -0.898411 0.372129 -0.2331902 -0.8087042 0.3494632 -0.4731523 -0.3563644 0.3640029 -0.8605268 -0.3571826 0.3637998 -0.8602734 9.19297e-4 0.3854128 -0.9227438 0.002623595 0.3854116 -0.922741 -0.9999249 -3.9761e-4 0.01224487 -0.9999197 -4.77702e-4 0.01266573 -0.9999881 3.03681e-5 0.004887162 -1 -1.45915e-4 1.03845e-4 -1 3.05176e-5 6.30038e-10 -0.9999979 -4.90643e-4 0.001996067 -0.9999973 -3.8567e-4 0.002313108 -1 3.05176e-5 -6.07749e-10 1 -3.05176e-5 6.07749e-10 0.9999973 -3.8567e-4 0.002313108 0.9999881 -3.06664e-5 0.004887162 0.9999979 -4.90643e-4 0.001996067 1 -1.45915e-4 1.03845e-4 0.9999197 -4.77696e-4 0.01266573 0.9999249 -3.97604e-4 0.01224487 1 -3.05176e-5 -6.30038e-10 0 -0.9645136 -0.2640331 -0.127501 -0.9477574 -0.2924027 -0.1178407 -0.9847799 0.1277584 -0.2346928 -0.9641261 0.1240165 0 -0.5519918 0.8338496 0 -0.5519918 0.8338496 0 -0.5519918 0.8338496 0 -0.9645136 0.2640331 0.127501 -0.9477574 0.2924027 0.1178407 -0.9847799 -0.1277584 0.2346928 -0.9641261 -0.1240165 0.7963542 0.3338817 0.5043242 0.7963542 0.3338817 0.5043242 0.7963542 0.3338817 0.5043242</float_array>
          <technique_common>
            <accessor source="#geom-GamemodelShape-map1-texbinormals-array" count="355" stride="3">
              <param name="X" type="float"/>
              <param name="Y" type="float"/>
              <param name="Z" type="float"/>
            </accessor>
          </technique_common>
        </source>
        <vertices id="geom-GamemodelShape-vertices">
          <input semantic="POSITION" source="#geom-GamemodelShape-positions"/>
        </vertices>
        <triangles material="def_bigbirdbase_001" count="342">
          <input semantic="VERTEX" source="#geom-GamemodelShape-vertices" offset="0"/>
          <input semantic="NORMAL" source="#geom-GamemodelShape-normals" offset="1"/>
          <input semantic="COLOR" source="#geom-GamemodelShape-map0" offset="2" set="0"/>
          <input semantic="TEXCOORD" source="#geom-GamemodelShape-map1" offset="3" set="0"/>
          <input semantic="TEXTANGENT" source="#geom-GamemodelShape-map1-textangents" offset="4" set="1"/>
          <input semantic="TEXBINORMAL" source="#geom-GamemodelShape-map1-texbinormals" offset="4" set="1"/>
          <p>0 0 0 0 0 46 1 46 46 1 47 2 47 47 2 2 3 2 2 3 46 1 46 46 1 0 0 0 0 0 0 0 0 0 0 1 4 1 1 4 2 3 2 2 3 46 1 46 46 1 2 3 2 2 3 61 5 61 61 5 279 6 279 279 6 46 1 46 46 1 60 7 60 60 7 61 5 61 61 5 60 7 60 60 7 46 1 46 46 1 46 1 46 46 1 55 8 55 55 8 47 2 47 47 2 49 9 49 49 9 55 8 55 55 8 46 1 46 46 1 46 1 46 46 1 53 10 53 53 10 49 9 49 49 9 2 3 2 2 3 95 11 95 95 11 97 12 97 97 12 2 3 2 2 3 97 12 97 97 12 61 5 61 61 5 2 3 2 2 3 3 13 3 3 13 18 14 18 18 14 2 3 2 2 3 18 14 18 18 14 95 11 95 95 11 2 3 2 2 3 1 4 1 1 4 3 13 3 3 13 1 4 1 1 4 6 15 6 6 15 3 13 3 3 13 13 16 13 13 16 6 15 6 6 15 1 4 1 1 4 3 13 3 3 13 276 17 276 276 17 19 18 19 19 18 18 14 18 18 14 3 13 3 3 13 19 18 19 19 18 12 19 12 12 19 3 13 3 3 13 6 15 6 6 15 11 20 11 11 20 3 13 3 3 13 12 19 12 12 19 96 21 96 96 21 18 14 18 18 14 20 22 20 20 22 95 11 95 95 11 18 14 18 18 14 96 21 96 96 21 18 14 18 18 14 19 18 19 19 18 20 22 20 20 22 95 11 95 95 11 96 21 96 96 21 97 12 97 97 12 61 5 61 61 5 97 12 97 97 12 62 23 62 62 23 97 12 97 97 12 96 21 96 96 21 62 23 62 62 23 60 7 60 60 7 61 5 61 61 5 62 23 62 62 23 13 16 13 13 16 21 24 21 21 24 6 15 6 6 15 22 25 22 22 25 4 26 4 4 26 6 15 6 6 15 6 15 6 6 15 21 24 21 21 24 22 25 22 22 25 6 15 6 6 15 5 27 5 5 27 7 28 7 7 28 4 26 4 4 26 5 27 5 5 27 6 15 6 6 15 98 29 98 98 29 4 26 4 4 26 22 25 22 22 25 5 27 5 5 27 4 26 4 4 26 301 30 301 301 30 4 26 4 4 26 98 29 98 98 29 301 30 301 301 30 301 30 301 301 30 98 29 98 98 29 302 31 302 302 31 49 9 49 49 9 53 10 53 53 10 54 32 54 54 32 48 33 48 48 33 67 34 67 67 34 49 9 49 49 9 49 9 49 49 9 67 34 67 67 34 55 8 55 55 8 50 35 50 50 35 49 9 49 49 9 51 36 51 51 36 48 33 48 48 33 49 9 49 49 9 50 35 50 50 35 55 8 55 55 8 67 34 67 67 34 68 37 68 68 37 67 34 67 67 34 48 33 48 48 33 71 38 71 71 38 48 33 48 48 33 315 39 315 315 39 71 38 71 71 38 315 39 315 315 39 48 33 48 48 33 50 35 50 50 35 71 38 71 71 38 315 39 315 315 39 316 40 316 316 40 8 41 8 8 41 52 42 52 52 42 81 43 81 81 43 81 43 81 81 43 82 44 82 82 44 8 41 8 8 41 9 45 9 9 45 8 41 8 8 41 40 46 40 40 46 52 42 52 52 42 8 41 8 8 41 10 47 10 10 47 41 48 41 41 48 40 46 40 40 46 8 41 8 8 41 8 41 8 8 41 9 45 9 9 45 10 47 10 10 47 39 49 39 39 49 40 46 40 40 46 41 48 41 41 48 78 50 78 78 50 31 51 31 31 51 14 52 14 14 52 14 52 14 14 52 31 51 31 31 51 15 53 15 15 53 14 52 14 14 52 15 53 15 15 53 16 54 16 16 54 304 55 304 304 55 31 51 31 31 51 78 50 78 78 50 303 56 303 303 56 32 57 32 32 57 31 51 31 31 51 303 56 303 303 56 31 51 31 31 51 304 55 304 304 55 31 51 31 31 51 32 57 32 32 57 15 53 15 15 53 268 58 268 268 58 15 53 15 15 53 32 57 32 32 57 270 59 270 270 59 15 53 15 15 53 269 60 269 269 60 268 58 268 268 58 269 60 269 269 60 15 53 15 15 53 16 54 16 16 54 15 53 15 15 53 17 61 17 17 61 16 54 16 16 54 17 61 17 17 61 84 62 84 84 62 84 62 84 84 62 83 63 83 83 63 16 54 16 16 54 83 63 83 83 63 242 64 242 242 64 16 54 16 16 54 17 61 17 17 61 278 65 278 278 65 277 66 277 277 66 237 67 237 237 67 17 61 17 17 61 277 66 277 277 66 17 61 17 17 61 237 67 237 237 67 235 68 235 235 68 17 61 17 17 61 235 68 235 235 68 84 62 84 84 62 84 62 84 84 62 235 68 235 235 68 86 69 86 86 69 85 70 85 85 70 84 62 84 84 62 86 69 86 86 69 83 63 83 83 63 84 62 84 84 62 85 70 85 85 70 85 70 85 85 70 242 64 242 242 64 83 63 83 83 63 241 71 241 241 71 242 64 242 242 64 85 70 85 85 70 86 69 86 86 69 235 68 235 235 68 236 72 236 236 72 235 68 235 235 68 239 73 239 239 73 236 72 236 236 72 237 67 237 237 67 239 73 239 239 73 235 68 235 235 68 277 66 277 277 66 238 74 238 238 74 237 67 237 237 67 237 67 237 237 67 238 74 238 238 74 239 73 239 239 73 278 65 278 278 65 56 75 56 56 75 277 66 277 277 66 238 74 238 238 74 277 66 277 277 66 56 75 56 56 75 246 76 246 246 76 238 74 238 238 74 56 75 56 56 75 238 74 238 238 74 246 76 246 246 76 240 77 240 240 77 239 73 239 239 73 238 74 238 238 74 240 77 240 240 77 89 78 89 89 78 246 76 246 246 76 56 75 56 56 75 58 79 58 58 79 89 78 89 89 78 56 75 56 56 75 56 75 56 56 75 57 80 57 57 80 58 79 58 58 79 240 77 240 240 77 246 76 246 246 76 245 81 245 245 81 90 82 90 90 82 246 76 246 246 76 89 78 89 89 78 245 81 245 245 81 246 76 246 246 76 90 82 90 90 82 58 79 58 58 79 87 83 87 87 83 89 78 89 89 78 89 78 89 89 78 88 84 88 88 84 90 82 90 90 82 87 83 87 87 83 88 84 88 88 84 89 78 89 89 78 58 79 58 58 79 243 85 243 243 85 87 83 87 87 83 58 79 58 58 79 57 80 57 57 80 59 86 59 59 86 57 80 57 57 80 273 87 273 273 87 99 88 99 99 88 57 80 57 57 80 275 89 275 275 89 274 90 274 274 90 273 87 273 273 87 57 80 57 57 80 274 90 274 274 90 57 80 57 57 80 99 88 99 99 88 76 91 76 76 91 59 86 59 59 86 57 80 57 57 80 76 91 76 76 91 59 86 59 59 86 76 91 76 76 91 77 92 77 77 92 314 93 314 314 93 76 91 76 76 91 313 94 313 313 94 77 92 77 77 92 76 91 76 76 91 314 93 314 314 93 76 91 76 76 91 99 88 99 99 88 313 94 313 313 94 99 88 99 99 88 312 95 312 312 95 313 94 313 313 94 273 87 273 273 87 312 95 312 312 95 99 88 99 99 88 273 87 273 273 87 274 90 274 274 90 354 96 354 354 96 88 84 88 88 84 243 85 243 243 85 244 97 244 244 97 87 83 87 87 83 243 85 243 243 85 88 84 88 88 84 268 58 268 268 58 32 57 32 32 57 305 98 305 305 98 305 98 305 305 98 32 57 32 32 57 303 56 303 303 56 333 99 333 333 99 24 100 24 24 100 23 101 23 23 101 23 101 23 23 101 24 100 24 24 100 25 102 25 25 102 335 103 335 335 103 24 100 24 24 100 333 99 333 333 99 333 99 333 333 99 334 104 334 334 104 335 103 335 335 103 24 100 24 24 100 29 105 29 29 105 26 106 26 26 106 25 102 25 25 102 24 100 24 24 100 26 106 26 26 106 25 102 25 25 102 26 106 26 26 106 27 107 27 27 107 26 106 26 26 106 29 105 29 29 105 30 108 30 30 108 27 107 27 27 107 26 106 26 26 106 28 109 28 28 109 33 110 33 33 110 35 111 35 35 111 37 112 37 37 112 33 110 33 33 110 34 113 34 34 113 35 111 35 35 111 37 112 37 37 112 35 111 35 35 111 38 114 38 38 114 35 111 35 35 111 34 113 34 34 113 36 115 36 36 115 66 116 66 66 116 37 112 37 37 112 38 114 38 38 114 64 117 64 64 117 37 112 37 37 112 66 116 66 66 116 65 118 65 65 118 64 117 64 64 117 66 116 66 66 116 63 119 63 63 119 64 117 64 64 117 65 118 65 65 118 79 120 79 79 120 65 118 65 65 118 80 121 80 80 121 63 119 63 63 119 65 118 65 65 118 79 120 79 79 120 36 115 36 36 115 69 122 69 69 122 70 123 70 70 123 34 113 34 34 113 69 122 69 69 122 36 115 36 36 115 44 124 44 44 124 293 125 293 293 125 42 126 42 42 126 42 126 42 42 126 290 127 290 290 127 91 128 91 91 128 291 129 291 291 129 290 127 290 290 127 42 126 42 42 126 42 126 42 42 126 93 130 93 93 130 43 131 43 43 131 91 128 91 91 128 93 130 93 93 130 42 126 42 42 126 42 126 42 42 126 43 131 43 43 131 44 124 44 44 124 45 132 45 45 132 295 133 295 295 133 44 124 44 44 124 292 134 292 292 134 293 125 293 293 125 44 124 44 44 124 44 124 44 44 124 43 131 43 43 131 45 132 45 45 132 43 131 43 43 131 281 135 281 281 135 298 136 298 298 136 93 130 93 93 130 281 135 281 281 135 43 131 43 43 131 43 131 43 43 131 297 137 297 297 137 45 132 45 45 132 296 138 296 296 138 297 137 297 297 137 43 131 43 43 131 94 139 94 94 139 281 135 281 281 135 93 130 93 93 130 93 130 93 93 130 92 140 92 92 140 94 139 94 94 139 91 128 91 91 128 92 140 92 92 140 93 130 93 93 130 290 127 290 290 127 288 141 288 288 141 91 128 91 91 128 91 128 91 91 128 288 141 288 288 141 92 140 92 92 140 92 140 92 92 140 288 141 288 288 141 289 142 289 289 142 92 140 92 92 140 286 143 286 286 143 272 144 272 272 144 271 145 271 271 145 92 140 92 92 140 272 144 272 272 144 94 139 94 94 139 92 140 92 92 140 271 145 271 271 145 94 139 94 94 139 282 146 282 282 146 283 147 283 283 147 271 145 271 271 145 282 146 282 282 146 94 139 94 94 139 280 148 280 280 148 281 135 281 281 135 94 139 94 94 139 271 145 271 271 145 284 149 284 284 149 285 150 285 285 150 272 144 272 272 144 284 149 284 284 149 271 145 271 271 145 272 144 272 272 144 286 143 286 286 143 287 151 287 287 151 294 152 294 294 152 295 133 295 295 133 45 132 45 45 132 74 153 74 74 153 322 154 322 322 154 72 155 72 72 155 72 155 72 72 155 73 156 73 73 156 74 153 74 74 153 320 157 320 320 157 322 154 322 322 154 74 153 74 74 153 75 158 75 75 158 324 159 324 324 159 74 153 74 74 153 74 153 74 74 153 73 156 73 73 156 75 158 75 75 158 320 157 320 320 157 321 160 321 321 160 322 154 322 322 154 323 161 323 323 161 324 159 324 324 159 75 158 75 75 158 75 158 75 75 158 73 156 73 73 156 325 162 325 325 162 325 162 325 325 162 73 156 73 73 156 326 163 326 326 163 156 164 156 156 164 100 165 100 100 165 157 166 157 157 166 101 167 101 101 167 100 165 100 100 165 156 164 156 156 164 100 165 100 100 165 101 167 101 101 167 102 168 102 102 168 101 167 101 101 167 156 164 156 156 164 182 169 182 182 169 156 164 156 156 164 181 170 181 181 170 182 169 182 182 169 165 171 165 165 171 156 164 156 156 164 157 166 157 157 166 160 172 160 160 172 156 164 156 156 164 165 171 165 165 171 156 164 156 156 164 160 172 160 160 172 163 173 163 163 173 101 167 101 101 167 206 174 206 206 174 129 175 129 129 175 129 175 129 129 175 103 176 103 103 176 101 167 101 101 167 182 169 182 182 169 206 174 206 206 174 101 167 101 101 167 102 168 102 102 168 101 167 101 101 167 103 176 103 103 176 105 177 105 105 177 102 168 102 102 168 103 176 103 103 176 113 178 113 113 178 102 168 102 102 168 105 177 105 105 177 129 175 129 129 175 130 179 130 130 179 103 176 103 103 176 103 176 103 103 176 112 180 112 112 180 105 177 105 105 177 111 181 111 111 181 112 180 112 112 180 103 176 103 103 176 132 182 132 132 182 105 177 105 105 177 104 183 104 104 183 131 184 131 131 184 105 177 105 105 177 132 182 132 132 182 113 178 113 113 178 105 177 105 105 177 131 184 131 131 184 105 177 105 105 177 107 185 107 107 185 106 186 106 106 186 104 183 104 104 183 105 177 105 105 177 106 186 106 106 186 104 183 104 104 183 207 187 207 207 187 132 182 132 132 182 104 183 104 104 183 106 186 106 106 186 300 188 300 300 188 300 188 300 300 188 207 187 207 207 187 104 183 104 104 183 299 189 299 299 189 207 187 207 207 187 300 188 300 300 188 163 173 163 163 173 160 172 160 160 172 164 190 164 164 190 158 191 158 158 191 160 172 160 160 172 187 192 187 187 192 160 172 160 160 172 165 171 165 165 171 187 192 187 187 192 159 193 159 159 193 161 194 161 161 194 160 172 160 160 172 158 191 158 158 191 159 193 159 159 193 160 172 160 160 172 187 192 187 187 192 165 171 165 165 171 188 195 188 188 195 187 192 187 187 192 191 196 191 191 196 158 191 158 158 191 317 197 317 317 197 159 193 159 159 193 158 191 158 158 191 158 191 158 158 191 191 196 191 191 196 317 197 317 317 197 317 197 317 317 197 191 196 191 191 196 318 198 318 318 198 108 199 108 108 199 202 200 202 202 200 162 201 162 162 201 202 200 202 202 200 108 199 108 108 199 203 202 203 203 202 110 203 110 110 203 155 204 155 155 204 108 199 108 108 199 162 201 162 162 201 109 205 109 109 205 108 199 108 108 199 155 204 155 155 204 154 206 154 154 206 108 199 108 108 199 108 199 108 108 199 109 205 109 109 205 110 203 110 110 203 153 207 153 153 207 154 206 154 154 206 155 204 155 155 204 114 208 114 114 208 116 209 116 116 209 198 210 198 198 210 198 210 198 198 210 199 211 199 199 211 114 208 114 114 208 114 208 114 114 208 115 212 115 115 212 116 209 116 116 209 116 209 116 116 209 144 213 144 144 213 267 214 267 267 214 267 214 267 267 214 198 210 198 198 210 116 209 116 116 209 116 209 116 116 209 146 215 146 146 215 145 216 145 145 216 144 213 144 144 213 116 209 116 116 209 145 216 145 145 216 116 209 116 116 209 115 212 115 115 212 117 217 117 117 217 198 210 198 198 210 308 218 308 308 218 199 211 199 199 211 307 219 307 307 219 308 218 308 308 218 198 210 198 198 210 307 219 307 307 219 198 210 198 198 210 267 214 267 267 214 267 214 267 267 214 306 220 306 306 220 307 219 307 307 219 144 213 144 144 213 306 220 306 306 220 267 214 267 267 214 144 213 144 144 213 145 216 145 145 216 343 221 343 343 221 172 222 172 172 222 117 217 117 117 217 118 223 118 118 223 173 224 173 173 224 117 217 117 117 217 172 222 172 172 222 118 223 118 118 223 117 217 117 117 217 115 212 115 115 212 115 212 115 115 212 204 225 204 204 225 118 223 118 118 223 172 222 172 172 222 171 226 171 171 226 173 224 173 173 224 170 227 170 170 227 171 226 171 171 226 172 222 172 172 222 171 226 171 171 226 170 227 170 170 227 167 228 167 167 228 169 229 169 169 229 167 228 167 167 228 170 227 170 170 227 170 227 170 170 227 205 230 205 205 230 169 229 169 169 229 168 231 168 168 231 167 228 167 167 228 169 229 169 169 229 166 232 166 166 232 167 228 167 167 228 168 231 168 168 231 168 231 168 168 231 197 233 197 197 233 166 232 166 166 232 168 231 168 168 231 196 234 196 196 234 197 233 197 197 233 311 235 311 311 235 166 232 166 166 232 208 236 208 208 236 332 237 332 332 237 166 232 166 166 232 331 238 331 331 238 311 235 311 311 235 331 238 331 331 238 166 232 166 166 232 197 233 197 197 233 208 236 208 208 236 166 232 166 166 232 309 239 309 309 239 208 236 208 208 236 197 233 197 197 233 197 233 197 197 233 319 240 319 319 240 309 239 309 309 239 196 234 196 196 234 319 240 319 319 240 197 233 197 197 233 208 236 208 208 236 310 241 310 310 241 311 235 311 311 235 309 239 309 309 239 310 241 310 310 241 208 236 208 208 236 119 242 119 119 242 120 243 120 120 243 121 244 121 121 244 127 245 127 127 245 120 243 120 120 243 124 246 124 124 246 122 247 122 122 247 120 243 120 120 243 127 245 127 127 245 120 243 120 120 243 123 248 123 123 248 124 246 124 124 246 121 244 121 121 244 120 243 120 120 243 122 247 122 122 247 127 245 127 127 245 174 249 174 174 249 122 247 122 122 247 179 250 179 179 250 174 249 174 174 249 127 245 127 127 245 126 251 126 126 251 179 250 179 179 250 127 245 127 127 245 128 252 128 128 252 127 245 127 127 245 124 246 124 124 246 126 251 126 126 251 127 245 127 127 245 128 252 128 128 252 124 246 124 124 246 123 248 123 123 248 125 253 125 125 253 180 254 180 180 254 179 250 179 179 250 126 251 126 126 251 179 250 179 179 250 178 255 178 178 255 174 249 174 174 249 177 256 177 177 256 178 255 178 178 255 179 250 179 179 250 175 257 175 175 257 174 249 174 174 249 176 258 176 176 258 122 247 122 122 247 174 249 174 174 249 175 257 175 175 257 139 259 139 139 259 133 260 133 133 260 140 261 140 140 261 134 262 134 134 262 133 260 133 133 260 139 259 139 139 259 133 260 133 133 260 137 263 137 137 263 138 264 138 138 264 135 265 135 135 265 137 263 137 137 263 133 260 133 133 260 133 260 133 133 260 134 262 134 134 262 135 265 135 135 265 135 265 135 135 265 134 262 134 134 262 136 266 136 136 266 134 262 134 134 262 143 267 143 143 267 136 266 136 136 266 141 268 141 141 268 143 267 143 143 267 134 262 134 134 262 141 268 141 141 268 142 269 142 142 269 143 267 143 143 267 147 270 147 147 270 151 271 151 151 271 148 272 148 148 272 147 270 147 147 270 148 272 148 148 272 149 273 149 149 273 186 274 186 186 274 151 271 151 151 271 185 275 185 185 275 152 276 152 152 276 151 271 151 151 271 186 274 186 186 274 148 272 148 148 272 151 271 151 151 271 152 276 152 152 276 149 273 149 149 273 148 272 148 148 272 150 277 150 150 277 149 273 149 149 273 150 277 150 150 277 189 278 189 189 278 189 278 189 189 278 150 277 150 150 277 190 279 190 190 279 185 275 185 185 275 184 280 184 184 280 186 274 186 186 274 183 281 183 183 281 184 280 184 184 280 185 275 185 185 275 184 280 184 184 280 200 282 200 200 282 201 283 201 201 283 183 281 183 183 281 200 282 200 200 282 184 280 184 184 280 344 284 344 344 284 193 285 193 193 285 192 286 192 192 286 192 286 192 192 286 193 285 193 193 285 194 287 194 194 287 346 288 346 346 288 193 285 193 193 285 344 284 344 344 284 344 284 344 344 284 345 289 345 345 289 346 288 346 346 288 330 290 330 330 290 195 291 195 195 291 193 285 193 193 285 194 287 194 194 287 193 285 193 193 285 195 291 195 195 291 194 287 194 194 287 327 292 327 327 292 328 293 328 328 293 195 291 195 195 291 327 292 327 327 292 194 287 194 194 287 329 294 329 329 294 195 291 195 195 291 330 290 330 330 290 213 295 213 213 295 209 296 209 209 296 214 297 214 214 297 210 298 210 210 298 209 296 209 209 296 213 295 213 213 295 209 296 209 209 296 210 298 210 210 298 211 299 211 211 299 213 295 213 213 295 215 300 215 215 300 216 301 216 216 301 214 297 214 214 297 215 300 215 215 300 213 295 213 213 295 215 300 215 215 300 217 302 217 217 302 216 301 216 216 301 216 301 216 216 301 217 302 217 217 302 218 303 218 218 303 219 304 219 219 304 217 302 217 217 302 220 305 220 220 305 218 303 218 218 303 217 302 217 217 302 219 304 219 219 304 211 299 211 211 299 263 306 263 263 306 264 307 264 264 307 212 308 212 212 308 263 306 263 263 306 211 299 211 211 299 211 299 211 211 299 210 298 210 210 298 212 308 212 212 308 221 309 221 221 309 265 310 265 265 310 222 311 222 222 311 221 309 221 221 309 222 311 222 222 311 223 312 223 223 312 222 311 222 222 311 265 310 265 265 310 266 313 266 266 313 222 311 222 222 311 225 314 225 225 314 224 315 224 224 315 223 312 223 223 312 222 311 222 222 311 224 315 224 224 315 228 316 228 228 316 223 312 223 223 312 224 315 224 224 315 227 317 227 227 317 228 316 228 228 316 224 315 224 224 315 225 314 225 225 314 227 317 227 227 317 224 315 224 224 315 226 318 226 226 318 227 317 227 227 317 225 314 225 225 314 229 319 229 229 319 227 317 227 227 317 226 318 226 226 318 231 320 231 231 320 227 317 227 227 317 229 319 229 229 319 229 319 229 229 319 230 321 230 230 321 231 320 231 231 320 231 320 231 231 320 230 321 230 230 321 232 322 232 232 322 233 323 233 233 323 230 321 230 230 321 234 324 234 234 324 232 322 232 232 322 230 321 230 230 321 233 323 233 233 323 250 325 250 250 325 247 326 247 247 326 249 327 249 249 327 247 326 247 247 326 248 328 248 248 328 249 327 249 249 327 249 327 249 249 327 251 329 251 251 329 250 325 250 250 325 249 327 249 249 327 248 328 248 248 328 262 330 262 262 330 249 327 249 249 327 262 330 262 262 330 260 331 260 260 331 260 331 260 260 331 261 332 261 261 332 249 327 249 249 327 259 333 259 259 333 258 334 258 258 334 252 335 252 252 335 252 335 252 252 335 258 334 258 258 334 257 336 257 257 336 252 335 252 252 335 257 336 257 257 336 256 337 256 256 337 256 337 256 256 337 255 338 255 255 338 252 335 252 252 335 255 338 255 255 338 253 339 253 253 339 252 335 252 252 335 252 335 252 252 335 253 339 253 253 339 254 340 254 254 340 336 341 336 336 341 337 342 337 337 342 338 343 338 338 343 338 343 338 338 343 337 342 337 337 342 339 344 339 339 344 340 345 340 340 345 341 346 341 341 346 342 347 342 342 347 347 348 347 347 348 348 349 348 348 349 349 350 349 349 350 349 350 349 349 350 348 349 348 348 349 350 351 350 350 351 351 352 351 351 352 352 353 352 352 353 353 354 353 353 354</p>
        </triangles>
      </mesh>
    </geometry>
  </library_geometries>
  <library_controllers>
    <controller id="geom-GamemodelShape-skin1">
      <skin source="#geom-GamemodelShape">
        <bind_shape_matrix>1 0 0 0 0 1 0 11.2545 0 0 1 0 0 0 0 1</bind_shape_matrix>
        <source id="geom-GamemodelShape-skin1-joints">
          <Name_array id="geom-GamemodelShape-skin1-joints-array" count="3">joint0 joint1 joint2</Name_array>
          <technique_common>
            <accessor source="#geom-GamemodelShape-skin1-joints-array" count="3" stride="1">
              <param name="JOINT" type="name"/>
            </accessor>
          </technique_common>
        </source>
        <source id="geom-GamemodelShape-skin1-bind_poses">
          <float_array id="geom-GamemodelShape-skin1-bind_poses-array" count="48">1 0 0 0 0 1 0 0 0 0 1 0 0 0 0 1 1 0 0 0 0 1 0 -11.2545 0 0 1 0 0 0 0 1 1 0 0 0 0 1 0 -11.2545 0 0 1 0 0 0 0 1</float_array>
          <technique_common>
            <accessor source="#geom-GamemodelShape-skin1-bind_poses-array" count="3" stride="16">
              <param name="TRANSFORM" type="float4x4"/>
            </accessor>
          </technique_common>
        </source>
        <source id="geom-GamemodelShape-skin1-weights">
          <float_array id="geom-GamemodelShape-skin1-weights-array" count="1">1</float_array>
          <technique_common>
            <accessor source="#geom-GamemodelShape-skin1-weights-array" count="1" stride="1">
              <param name="WEIGHT" type="float"/>
            </accessor>
          </technique_common>
        </source>
        <joints>
          <input semantic="JOINT" source="#geom-GamemodelShape-skin1-joints"/>
          <input semantic="INV_BIND_MATRIX" source="#geom-GamemodelShape-skin1-bind_poses"/>
        </joints>
        <vertex_weights count="355">
          <input semantic="JOINT" source="#geom-GamemodelShape-skin1-joints" offset="0"/>
          <input semantic="WEIGHT" source="#geom-GamemodelShape-skin1-weights" offset="1"/>
          <vcount>1 1 1 1 1 1 1 1 1 1 1 1 1 1 1 1 1 1 1 1 1 1 1 1 1 1 1 1 1 1 1 1 1 1 1 1 1 1 1 1 1 1 1 1 1 1 1 1 1 1 1 1 1 1 1 1 1 1 1 1 1 1 1 1 1 1 1 1 1 1 1 1 1 1 1 1 1 1 1 1 1 1 1 1 1 1 1 1 1 1 1 1 1 1 1 1 1 1 1 1 1 1 1 1 1 1 1 1 1 1 1 1 1 1 1 1 1 1 1 1 1 1 1 1 1 1 1 1 1 1 1 1 1 1 1 1 1 1 1 1 1 1 1 1 1 1 1 1 1 1 1 1 1 1 1 1 1 1 1 1 1 1 1 1 1 1 1 1 1 1 1 1 1 1 1 1 1 1 1 1 1 1 1 1 1 1 1 1 1 1 1 1 1 1 1 1 1 1 1 1 1 1 1 1 1 1 1 1 1 1 1 1 1 1 1 1 1 1 1 1 1 1 1 1 1 1 1 1 1 1 1 1 1 1 1 1 1 1 1 1 1 1 1 1 1 1 1 1 1 1 1 1 1 1 1 1 1 1 1 1 1 1 1 1 1 1 1 1 1 1 1 1 1 1 1 1 1 1 1 1 1 1 1 1 1 1 1 1 1 1 1 1 1 1 1 1 1 1 1 1 1 1 1 1 1 1 1 1 1 1 1 1 1 1 1 1 1 1 1 1 1 1 1 1 1 1 1 1 1 1 1 1 1 1 1 1 1 1 1 1 1 1 1 1 1 1 1 1 1 1 1 1 1 1 1</vcount>
          <v>2 0 2 0 2 0 2 0 2 0 2 0 2 0 2 0 2 0 2 0 2 0 2 0 2 0 2 0 2 0 2 0 2 0 2 0 2 0 2 0 2 0 2 0 2 0 2 0 2 0 2 0 2 0 2 0 2 0 2 0 2 0 2 0 2 0 2 0 2 0 2 0 2 0 2 0 2 0 2 0 2 0 2 0 2 0 2 0 2 0 2 0 2 0 2 0 2 0 2 0 2 0 2 0 2 0 2 0 2 0 2 0 2 0 2 0 2 0 2 0 2 0 2 0 2 0 2 0 2 0 2 0 2 0 2 0 2 0 2 0 2 0 2 0 2 0 2 0 2 0 2 0 2 0 2 0 2 0 2 0 2 0 2 0 2 0 2 0 2 0 2 0 2 0 2 0 2 0 2 0 2 0 2 0 2 0 2 0 2 0 2 0 2 0 2 0 2 0 2 0 2 0 2 0 2 0 2 0 2 0 2 0 2 0 2 0 2 0 2 0 2 0 2 0 2 0 2 0 2 0 2 0 2 0 2 0 2 0 2 0 2 0 2 0 2 0 2 0 2 0 2 0 2 0 2 0 2 0 2 0 2 0 2 0 2 0 2 0 2 0 2 0 2 0 2 0 2 0 2 0 2 0 2 0 2 0 2 0 2 0 2 0 2 0 2 0 2 0 2 0 2 0 2 0 2 0 2 0 2 0 2 0 2 0 2 0 2 0 2 0 2 0 2 0 2 0 2 0 2 0 2 0 2 0 2 0 2 0 2 0 2 0 2 0 2 0 2 0 2 0 2 0 2 0 2 0 2 0 2 0 2 0 2 0 2 0 2 0 2 0 2 0 2 0 2 0 2 0 2 0 2 0 2 0 2 0 2 0 2 0 2 0 2 0 2 0 2 0 2 0 2 0 2 0 2 0 2 0 2 0 2 0 2 0 2 0 2 0 2 0 2 0 2 0 2 0 2 0 2 0 2 0 2 0 2 0 2 0 2 0 2 0 2 0 2 0 2 0 2 0 2 0 2 0 2 0 2 0 2 0 2 0 2 0 2 0 2 0 2 0 2 0 2 0 2 0 2 0 2 0 2 0 2 0 2 0 2 0 2 0 2 0 2 0 2 0 2 0 2 0 2 0 2 0 2 0 2 0 2 0 2 0 2 0 2 0 2 0 2 0 2 0 2 0 2 0 2 0 2 0 2 0 2 0 2 0 2 0 2 0 2 0 2 0 2 0 2 0 2 0 2 0 2 0 2 0 2 0 2 0 2 0 2 0 2 0 2 0 2 0 2 0 2 0 2 0 2 0 2 0 2 0 2 0 2 0 2 0 2 0 2 0 2 0 2 0 2 0 2 0 2 0 2 0 2 0 2 0 2 0 2 0 2 0 2 0 2 0 2 0 2 0 2 0 2 0 2 0 2 0 2 0 2 0 2 0 2 0 2 0 2 0 2 0 2 0 2 0 2 0 2 0 2 0 2 0 2 0 2 0 2 0 2 0 2 0 2 0 2 0 2 0 2 0 2 0 2 0 2 0 2 0 2 0 2 0 2 0 2 0 2 0 2 0 2 0 2 0 2 0 2 0 2 0 2 0 2 0 2 0</v>
        </vertex_weights>
      </skin>
    </controller>
  </library_controllers>
  <library_lights>
    <light id="EnvironmentAmbientLight" name="EnvironmentAmbientLight">
      <technique_common>
        <ambient>
          <color>0 0 0</color>
        </ambient>
      </technique_common>
    </light>
  </library_lights>
  <library_images>
    <image id="def_bigbirdbase_001_col_png">
      <init_from>./Textures/The%20Mighty%20Jinjonator/def_bigbirdbase_001_col.png</init_from>
    </image>
  </library_images>
  <library_visual_scenes>
    <visual_scene id="MaxScene">
      <node name="EnvironmentAmbientLight">
        <instance_light url="#EnvironmentAmbientLight"/>
      </node>
      <node id="node-Trans" name="Trans" sid="joint0" type="JOINT">
        <matrix>1 0 0 0 0 1 0 0 0 0 1 0 0 0 0 1</matrix>
        <node id="node-Rot" name="Rot" sid="joint1" type="JOINT">
          <matrix>1 0 0 0 0 1 0 11.2545 0 0 1 0 0 0 0 1</matrix>
          <node id="node-Have" name="Have" sid="joint2" type="JOINT">
            <matrix>1 0 0 0 0 1 0 0 0 0 1 0 0 0 0 1</matrix>
            <extra>
              <technique profile="OpenCOLLADA">
                <cast_shadows sid="cast_shadows" type="bool">1</cast_shadows>
                <receive_shadows sid="receive_shadows" type="bool">1</receive_shadows>
                <primary_visibility sid="primary_visibility" type="bool">1</primary_visibility>
                <secondary_visibility sid="secondary_visibility" type="bool">1</secondary_visibility>
              </technique>
            </extra>
          </node>
          <extra>
            <technique profile="OpenCOLLADA">
              <cast_shadows sid="cast_shadows" type="bool">1</cast_shadows>
              <receive_shadows sid="receive_shadows" type="bool">1</receive_shadows>
              <primary_visibility sid="primary_visibility" type="bool">1</primary_visibility>
              <secondary_visibility sid="secondary_visibility" type="bool">1</secondary_visibility>
            </technique>
          </extra>
        </node>
        <extra>
          <technique profile="OpenCOLLADA">
            <cast_shadows sid="cast_shadows" type="bool">1</cast_shadows>
            <receive_shadows sid="receive_shadows" type="bool">1</receive_shadows>
            <primary_visibility sid="primary_visibility" type="bool">1</primary_visibility>
            <secondary_visibility sid="secondary_visibility" type="bool">1</secondary_visibility>
          </technique>
        </extra>
      </node>
      <node id="node-GamemodelShape" name="GamemodelShape">
        <instance_controller url="#geom-GamemodelShape-skin1">
          <skeleton>#node-Trans</skeleton>
          <bind_material>
            <technique_common>
              <instance_material symbol="def_bigbirdbase_001" target="#def_bigbirdbase_001-material">
                <bind_vertex_input semantic="CHANNEL1" input_semantic="TEXCOORD" input_set="0"/>
                <bind_vertex_input semantic="CHANNEL1" input_semantic="TEXCOORD" input_set="0"/>
              </instance_material>
            </technique_common>
          </bind_material>
        </instance_controller>
        <extra>
          <technique profile="OpenCOLLADA">
            <cast_shadows sid="cast_shadows" type="bool">1</cast_shadows>
            <receive_shadows sid="receive_shadows" type="bool">1</receive_shadows>
            <primary_visibility sid="primary_visibility" type="bool">1</primary_visibility>
            <secondary_visibility sid="secondary_visibility" type="bool">1</secondary_visibility>
          </technique>
        </extra>
      </node>
    </visual_scene>
  </library_visual_scenes>
  <scene>
    <instance_visual_scene url="#MaxScene"/>
  </scene>
</COLLADA>